  0
SECTION
  2
HEADER
  9
$MEASUREMENT
  70
  0
  9
$INSUNITS
  70
  1
  0
ENDSEC
  0
SECTION
  2
TABLES
  0
TABLE
  2
LTYPE
 70
     1
  0
LTYPE
  2
CONTINUOUS
 70
    64
  3
Ausgezogene Linie
 72
    65
 73
     0
 40
0.0
  0
ENDTAB
  0
TABLE
  2
LAYER
 70
     3
  0
LAYER
  2
Contour
 70
    64
 62
     7
  6
CONTINUOUS
  0
LAYER
  2
Engraving
 70
    64
 62
     7
  6
CONTINUOUS
  0
LAYER
  2
Reference_points
 70
    64
 62
     1
  6
CONTINUOUS
  0
ENDTAB
  0
TABLE
  2
STYLE
 70
     1
  0
STYLE
  2
TXT
 70
    64
 40
0.0
 41
1.0
 50
0.0
 71
     0
 42
3.500000
  3
TXT
  0
ENDTAB
  0
ENDSEC
  0
SECTION
  2
BLOCKS
  0
ENDSEC
  0
SECTION
  2
ENTITIES
  0
LINE
  8
Contour
 62
   7
 39
0.004
  6
CONTINUOUS
 10
15.50000
 20
7.00000
 30
 0
 11
15.50000
 21
0.00000
  0
LINE
  8
Contour
 62
   7
 39
0.004
  6
CONTINUOUS
 10
15.50000
 20
0.00000
 30
 0
 11
0.00000
 21
0.00000
  0
LINE
  8
Contour
 62
   7
 39
0.004
  6
CONTINUOUS
 10
0.00000
 20
0.00000
 30
 0
 11
0.00000
 21
7.00000
  0
LINE
  8
Contour
 62
   7
 39
0.004
  6
CONTINUOUS
 10
0.00000
 20
7.00000
 30
 0
 11
15.50000
 21
7.00000
  0
CIRCLE
  8
Contour
 62
   7
 39
0.004
  6
CONTINUOUS
 10
0.37500
 20
6.62512
 30
 0
 40
0.09398
  0
CIRCLE
  8
Contour
 62
   7
 39
0.004
  6
CONTINUOUS
 10
15.12500
 20
6.62500
 30
 0
 40
0.09398
  0
CIRCLE
  8
Contour
 62
   7
 39
0.004
  6
CONTINUOUS
 10
0.18799
 20
0.75000
 30
 0
 40
0.09398
  0
CIRCLE
  8
Contour
 62
   7
 39
0.004
  6
CONTINUOUS
 10
15.31201
 20
0.75000
 30
 0
 40
0.09398
  0
CIRCLE
  8
Contour
 62
   7
 39
0.004
  6
CONTINUOUS
 10
0.95000
 20
6.00000
 30
 0
 40
0.06248
  0
CIRCLE
  8
Contour
 62
   7
 39
0.004
  6
CONTINUOUS
 10
7.75000
 20
6.00000
 30
 0
 40
0.06248
  0
CIRCLE
  8
Contour
 62
   7
 39
0.004
  6
CONTINUOUS
 10
14.55000
 20
6.00000
 30
 0
 40
0.06248
  0
CIRCLE
  8
Contour
 62
   7
 39
0.004
  6
CONTINUOUS
 10
0.95000
 20
0.25000
 30
 0
 40
0.06248
  0
CIRCLE
  8
Contour
 62
   7
 39
0.004
  6
CONTINUOUS
 10
7.75000
 20
0.25000
 30
 0
 40
0.06248
  0
CIRCLE
  8
Contour
 62
   7
 39
0.004
  6
CONTINUOUS
 10
14.55000
 20
0.25000
 30
 0
 40
0.06248
  0
CIRCLE
  8
Contour
 62
   7
 39
0.004
  6
CONTINUOUS
 10
13.75000
 20
5.12500
 30
 0
 40
0.18748
  0
CIRCLE
  8
Contour
 62
   7
 39
0.004
  6
CONTINUOUS
 10
11.75500
 20
5.13386
 30
 0
 40
0.18748
  0
CIRCLE
  8
Contour
 62
   7
 39
0.004
  6
CONTINUOUS
 10
9.75000
 20
5.12500
 30
 0
 40
0.18748
  0
CIRCLE
  8
Contour
 62
   7
 39
0.004
  6
CONTINUOUS
 10
7.75500
 20
5.13386
 30
 0
 40
0.18748
  0
CIRCLE
  8
Contour
 62
   7
 39
0.004
  6
CONTINUOUS
 10
5.75000
 20
5.12500
 30
 0
 40
0.18748
  0
CIRCLE
  8
Contour
 62
   7
 39
0.004
  6
CONTINUOUS
 10
3.75500
 20
5.13386
 30
 0
 40
0.18748
  0
CIRCLE
  8
Contour
 62
   7
 39
0.004
  6
CONTINUOUS
 10
5.75000
 20
3.12500
 30
 0
 40
0.18748
  0
CIRCLE
  8
Contour
 62
   7
 39
0.004
  6
CONTINUOUS
 10
3.75500
 20
3.13386
 30
 0
 40
0.18748
  0
CIRCLE
  8
Contour
 62
   7
 39
0.004
  6
CONTINUOUS
 10
9.75000
 20
3.12500
 30
 0
 40
0.18748
  0
CIRCLE
  8
Contour
 62
   7
 39
0.004
  6
CONTINUOUS
 10
7.75500
 20
3.13386
 30
 0
 40
0.18748
  0
CIRCLE
  8
Contour
 62
   7
 39
0.004
  6
CONTINUOUS
 10
13.75000
 20
3.12500
 30
 0
 40
0.18748
  0
CIRCLE
  8
Contour
 62
   7
 39
0.004
  6
CONTINUOUS
 10
11.75500
 20
3.13386
 30
 0
 40
0.18748
  0
CIRCLE
  8
Contour
 62
   7
 39
0.004
  6
CONTINUOUS
 10
1.75500
 20
3.13386
 30
 0
 40
0.18748
  0
CIRCLE
  8
Contour
 62
   7
 39
0.004
  6
CONTINUOUS
 10
1.75500
 20
5.13386
 30
 0
 40
0.18748
  0
CIRCLE
  8
Contour
 62
   7
 39
0.004
  6
CONTINUOUS
 10
1.45000
 20
1.62500
 30
 0
 40
0.09398
  0
ARC
  8
Contour
 62
   7
 39
0.004
  6
CONTINUOUS
 10
1.17441
 20
0.63189
 30
 0
 40
0.01969
 50
180.00000
 51
270.00000
  0
LINE
  8
Contour
 62
   7
 39
0.004
  6
CONTINUOUS
 10
1.17441
 20
0.61220
 30
 0
 11
1.72559
 21
0.61220
  0
ARC
  8
Contour
 62
   7
 39
0.004
  6
CONTINUOUS
 10
1.72559
 20
0.63189
 30
 0
 40
0.01969
 50
270.00000
 51
360.00000
  0
LINE
  8
Contour
 62
   7
 39
0.004
  6
CONTINUOUS
 10
1.74528
 20
0.63189
 30
 0
 11
1.74528
 21
0.86811
  0
ARC
  8
Contour
 62
   7
 39
0.004
  6
CONTINUOUS
 10
1.72559
 20
0.86811
 30
 0
 40
0.01969
 50
0.00000
 51
90.00000
  0
LINE
  8
Contour
 62
   7
 39
0.004
  6
CONTINUOUS
 10
1.72559
 20
0.88780
 30
 0
 11
1.17441
 21
0.88780
  0
ARC
  8
Contour
 62
   7
 39
0.004
  6
CONTINUOUS
 10
1.17441
 20
0.86811
 30
 0
 40
0.01969
 50
90.00000
 51
180.00000
  0
LINE
  8
Contour
 62
   7
 39
0.004
  6
CONTINUOUS
 10
1.15472
 20
0.86811
 30
 0
 11
1.15472
 21
0.63189
  0
ARC
  8
Contour
 62
   7
 39
0.004
  6
CONTINUOUS
 10
2.57441
 20
0.63189
 30
 0
 40
0.01969
 50
180.00000
 51
270.00000
  0
LINE
  8
Contour
 62
   7
 39
0.004
  6
CONTINUOUS
 10
2.57441
 20
0.61220
 30
 0
 11
3.12559
 21
0.61220
  0
ARC
  8
Contour
 62
   7
 39
0.004
  6
CONTINUOUS
 10
3.12559
 20
0.63189
 30
 0
 40
0.01969
 50
270.00000
 51
360.00000
  0
LINE
  8
Contour
 62
   7
 39
0.004
  6
CONTINUOUS
 10
3.14528
 20
0.63189
 30
 0
 11
3.14528
 21
0.86811
  0
ARC
  8
Contour
 62
   7
 39
0.004
  6
CONTINUOUS
 10
3.12559
 20
0.86811
 30
 0
 40
0.01969
 50
0.00000
 51
90.00000
  0
LINE
  8
Contour
 62
   7
 39
0.004
  6
CONTINUOUS
 10
3.12559
 20
0.88780
 30
 0
 11
2.57441
 21
0.88780
  0
ARC
  8
Contour
 62
   7
 39
0.004
  6
CONTINUOUS
 10
2.57441
 20
0.86811
 30
 0
 40
0.01969
 50
90.00000
 51
180.00000
  0
LINE
  8
Contour
 62
   7
 39
0.004
  6
CONTINUOUS
 10
2.55472
 20
0.86811
 30
 0
 11
2.55472
 21
0.63189
  0
ARC
  8
Contour
 62
   7
 39
0.004
  6
CONTINUOUS
 10
2.57441
 20
1.50689
 30
 0
 40
0.01969
 50
180.00000
 51
270.00000
  0
LINE
  8
Contour
 62
   7
 39
0.004
  6
CONTINUOUS
 10
2.57441
 20
1.48720
 30
 0
 11
3.12559
 21
1.48720
  0
ARC
  8
Contour
 62
   7
 39
0.004
  6
CONTINUOUS
 10
3.12559
 20
1.50689
 30
 0
 40
0.01969
 50
270.00000
 51
360.00000
  0
LINE
  8
Contour
 62
   7
 39
0.004
  6
CONTINUOUS
 10
3.14528
 20
1.50689
 30
 0
 11
3.14528
 21
1.74311
  0
ARC
  8
Contour
 62
   7
 39
0.004
  6
CONTINUOUS
 10
3.12559
 20
1.74311
 30
 0
 40
0.01969
 50
0.00000
 51
90.00000
  0
LINE
  8
Contour
 62
   7
 39
0.004
  6
CONTINUOUS
 10
3.12559
 20
1.76280
 30
 0
 11
2.57441
 21
1.76280
  0
ARC
  8
Contour
 62
   7
 39
0.004
  6
CONTINUOUS
 10
2.57441
 20
1.74311
 30
 0
 40
0.01969
 50
90.00000
 51
180.00000
  0
LINE
  8
Contour
 62
   7
 39
0.004
  6
CONTINUOUS
 10
2.55472
 20
1.74311
 30
 0
 11
2.55472
 21
1.50689
  0
ARC
  8
Contour
 62
   7
 39
0.004
  6
CONTINUOUS
 10
3.97441
 20
0.63189
 30
 0
 40
0.01969
 50
180.00000
 51
270.00000
  0
LINE
  8
Contour
 62
   7
 39
0.004
  6
CONTINUOUS
 10
3.97441
 20
0.61220
 30
 0
 11
4.52559
 21
0.61220
  0
ARC
  8
Contour
 62
   7
 39
0.004
  6
CONTINUOUS
 10
4.52559
 20
0.63189
 30
 0
 40
0.01969
 50
270.00000
 51
360.00000
  0
LINE
  8
Contour
 62
   7
 39
0.004
  6
CONTINUOUS
 10
4.54528
 20
0.63189
 30
 0
 11
4.54528
 21
0.86811
  0
ARC
  8
Contour
 62
   7
 39
0.004
  6
CONTINUOUS
 10
4.52559
 20
0.86811
 30
 0
 40
0.01969
 50
0.00000
 51
90.00000
  0
LINE
  8
Contour
 62
   7
 39
0.004
  6
CONTINUOUS
 10
4.52559
 20
0.88780
 30
 0
 11
3.97441
 21
0.88780
  0
ARC
  8
Contour
 62
   7
 39
0.004
  6
CONTINUOUS
 10
3.97441
 20
0.86811
 30
 0
 40
0.01969
 50
90.00000
 51
180.00000
  0
LINE
  8
Contour
 62
   7
 39
0.004
  6
CONTINUOUS
 10
3.95472
 20
0.86811
 30
 0
 11
3.95472
 21
0.63189
  0
ARC
  8
Contour
 62
   7
 39
0.004
  6
CONTINUOUS
 10
3.97441
 20
1.50689
 30
 0
 40
0.01969
 50
180.00000
 51
270.00000
  0
LINE
  8
Contour
 62
   7
 39
0.004
  6
CONTINUOUS
 10
3.97441
 20
1.48720
 30
 0
 11
4.52559
 21
1.48720
  0
ARC
  8
Contour
 62
   7
 39
0.004
  6
CONTINUOUS
 10
4.52559
 20
1.50689
 30
 0
 40
0.01969
 50
270.00000
 51
360.00000
  0
LINE
  8
Contour
 62
   7
 39
0.004
  6
CONTINUOUS
 10
4.54528
 20
1.50689
 30
 0
 11
4.54528
 21
1.74311
  0
ARC
  8
Contour
 62
   7
 39
0.004
  6
CONTINUOUS
 10
4.52559
 20
1.74311
 30
 0
 40
0.01969
 50
0.00000
 51
90.00000
  0
LINE
  8
Contour
 62
   7
 39
0.004
  6
CONTINUOUS
 10
4.52559
 20
1.76280
 30
 0
 11
3.97441
 21
1.76280
  0
ARC
  8
Contour
 62
   7
 39
0.004
  6
CONTINUOUS
 10
3.97441
 20
1.74311
 30
 0
 40
0.01969
 50
90.00000
 51
180.00000
  0
LINE
  8
Contour
 62
   7
 39
0.004
  6
CONTINUOUS
 10
3.95472
 20
1.74311
 30
 0
 11
3.95472
 21
1.50689
  0
ARC
  8
Contour
 62
   7
 39
0.004
  6
CONTINUOUS
 10
5.43346
 20
0.63189
 30
 0
 40
0.01969
 50
180.00000
 51
270.00000
  0
LINE
  8
Contour
 62
   7
 39
0.004
  6
CONTINUOUS
 10
5.43346
 20
0.61220
 30
 0
 11
5.86654
 21
0.61220
  0
ARC
  8
Contour
 62
   7
 39
0.004
  6
CONTINUOUS
 10
5.86654
 20
0.63189
 30
 0
 40
0.01969
 50
270.00000
 51
360.00000
  0
LINE
  8
Contour
 62
   7
 39
0.004
  6
CONTINUOUS
 10
5.88622
 20
0.63189
 30
 0
 11
5.88622
 21
0.86811
  0
ARC
  8
Contour
 62
   7
 39
0.004
  6
CONTINUOUS
 10
5.86654
 20
0.86811
 30
 0
 40
0.01969
 50
0.00000
 51
90.00000
  0
LINE
  8
Contour
 62
   7
 39
0.004
  6
CONTINUOUS
 10
5.86654
 20
0.88780
 30
 0
 11
5.43346
 21
0.88780
  0
ARC
  8
Contour
 62
   7
 39
0.004
  6
CONTINUOUS
 10
5.43346
 20
0.86811
 30
 0
 40
0.01969
 50
90.00000
 51
180.00000
  0
LINE
  8
Contour
 62
   7
 39
0.004
  6
CONTINUOUS
 10
5.41378
 20
0.86811
 30
 0
 11
5.41378
 21
0.63189
  0
ARC
  8
Contour
 62
   7
 39
0.004
  6
CONTINUOUS
 10
5.43346
 20
1.50689
 30
 0
 40
0.01969
 50
180.00000
 51
270.00000
  0
LINE
  8
Contour
 62
   7
 39
0.004
  6
CONTINUOUS
 10
5.43346
 20
1.48720
 30
 0
 11
5.86654
 21
1.48720
  0
ARC
  8
Contour
 62
   7
 39
0.004
  6
CONTINUOUS
 10
5.86654
 20
1.50689
 30
 0
 40
0.01969
 50
270.00000
 51
360.00000
  0
LINE
  8
Contour
 62
   7
 39
0.004
  6
CONTINUOUS
 10
5.88622
 20
1.50689
 30
 0
 11
5.88622
 21
1.74311
  0
ARC
  8
Contour
 62
   7
 39
0.004
  6
CONTINUOUS
 10
5.86654
 20
1.74311
 30
 0
 40
0.01969
 50
0.00000
 51
90.00000
  0
LINE
  8
Contour
 62
   7
 39
0.004
  6
CONTINUOUS
 10
5.86654
 20
1.76280
 30
 0
 11
5.43346
 21
1.76280
  0
ARC
  8
Contour
 62
   7
 39
0.004
  6
CONTINUOUS
 10
5.43346
 20
1.74311
 30
 0
 40
0.01969
 50
90.00000
 51
180.00000
  0
LINE
  8
Contour
 62
   7
 39
0.004
  6
CONTINUOUS
 10
5.41378
 20
1.74311
 30
 0
 11
5.41378
 21
1.50689
  0
ARC
  8
Contour
 62
   7
 39
0.004
  6
CONTINUOUS
 10
6.83346
 20
0.63189
 30
 0
 40
0.01969
 50
180.00000
 51
270.00000
  0
LINE
  8
Contour
 62
   7
 39
0.004
  6
CONTINUOUS
 10
6.83346
 20
0.61220
 30
 0
 11
7.26654
 21
0.61220
  0
ARC
  8
Contour
 62
   7
 39
0.004
  6
CONTINUOUS
 10
7.26654
 20
0.63189
 30
 0
 40
0.01969
 50
270.00000
 51
360.00000
  0
LINE
  8
Contour
 62
   7
 39
0.004
  6
CONTINUOUS
 10
7.28622
 20
0.63189
 30
 0
 11
7.28622
 21
0.86811
  0
ARC
  8
Contour
 62
   7
 39
0.004
  6
CONTINUOUS
 10
7.26654
 20
0.86811
 30
 0
 40
0.01969
 50
0.00000
 51
90.00000
  0
LINE
  8
Contour
 62
   7
 39
0.004
  6
CONTINUOUS
 10
7.26654
 20
0.88780
 30
 0
 11
6.83346
 21
0.88780
  0
ARC
  8
Contour
 62
   7
 39
0.004
  6
CONTINUOUS
 10
6.83346
 20
0.86811
 30
 0
 40
0.01969
 50
90.00000
 51
180.00000
  0
LINE
  8
Contour
 62
   7
 39
0.004
  6
CONTINUOUS
 10
6.81378
 20
0.86811
 30
 0
 11
6.81378
 21
0.63189
  0
ARC
  8
Contour
 62
   7
 39
0.004
  6
CONTINUOUS
 10
6.77441
 20
1.50689
 30
 0
 40
0.01969
 50
180.00000
 51
270.00000
  0
LINE
  8
Contour
 62
   7
 39
0.004
  6
CONTINUOUS
 10
6.77441
 20
1.48720
 30
 0
 11
7.32559
 21
1.48720
  0
ARC
  8
Contour
 62
   7
 39
0.004
  6
CONTINUOUS
 10
7.32559
 20
1.50689
 30
 0
 40
0.01969
 50
270.00000
 51
360.00000
  0
LINE
  8
Contour
 62
   7
 39
0.004
  6
CONTINUOUS
 10
7.34528
 20
1.50689
 30
 0
 11
7.34528
 21
1.74311
  0
ARC
  8
Contour
 62
   7
 39
0.004
  6
CONTINUOUS
 10
7.32559
 20
1.74311
 30
 0
 40
0.01969
 50
0.00000
 51
90.00000
  0
LINE
  8
Contour
 62
   7
 39
0.004
  6
CONTINUOUS
 10
7.32559
 20
1.76280
 30
 0
 11
6.77441
 21
1.76280
  0
ARC
  8
Contour
 62
   7
 39
0.004
  6
CONTINUOUS
 10
6.77441
 20
1.74311
 30
 0
 40
0.01969
 50
90.00000
 51
180.00000
  0
LINE
  8
Contour
 62
   7
 39
0.004
  6
CONTINUOUS
 10
6.75472
 20
1.74311
 30
 0
 11
6.75472
 21
1.50689
  0
ARC
  8
Contour
 62
   7
 39
0.004
  6
CONTINUOUS
 10
8.23346
 20
0.63189
 30
 0
 40
0.01969
 50
180.00000
 51
270.00000
  0
LINE
  8
Contour
 62
   7
 39
0.004
  6
CONTINUOUS
 10
8.23346
 20
0.61220
 30
 0
 11
8.66654
 21
0.61220
  0
ARC
  8
Contour
 62
   7
 39
0.004
  6
CONTINUOUS
 10
8.66654
 20
0.63189
 30
 0
 40
0.01969
 50
270.00000
 51
360.00000
  0
LINE
  8
Contour
 62
   7
 39
0.004
  6
CONTINUOUS
 10
8.68622
 20
0.63189
 30
 0
 11
8.68622
 21
0.86811
  0
ARC
  8
Contour
 62
   7
 39
0.004
  6
CONTINUOUS
 10
8.66654
 20
0.86811
 30
 0
 40
0.01969
 50
0.00000
 51
90.00000
  0
LINE
  8
Contour
 62
   7
 39
0.004
  6
CONTINUOUS
 10
8.66654
 20
0.88780
 30
 0
 11
8.23346
 21
0.88780
  0
ARC
  8
Contour
 62
   7
 39
0.004
  6
CONTINUOUS
 10
8.23346
 20
0.86811
 30
 0
 40
0.01969
 50
90.00000
 51
180.00000
  0
LINE
  8
Contour
 62
   7
 39
0.004
  6
CONTINUOUS
 10
8.21378
 20
0.86811
 30
 0
 11
8.21378
 21
0.63189
  0
ARC
  8
Contour
 62
   7
 39
0.004
  6
CONTINUOUS
 10
8.23346
 20
1.50689
 30
 0
 40
0.01969
 50
180.00000
 51
270.00000
  0
LINE
  8
Contour
 62
   7
 39
0.004
  6
CONTINUOUS
 10
8.23346
 20
1.48720
 30
 0
 11
8.66654
 21
1.48720
  0
ARC
  8
Contour
 62
   7
 39
0.004
  6
CONTINUOUS
 10
8.66654
 20
1.50689
 30
 0
 40
0.01969
 50
270.00000
 51
360.00000
  0
LINE
  8
Contour
 62
   7
 39
0.004
  6
CONTINUOUS
 10
8.68622
 20
1.50689
 30
 0
 11
8.68622
 21
1.74311
  0
ARC
  8
Contour
 62
   7
 39
0.004
  6
CONTINUOUS
 10
8.66654
 20
1.74311
 30
 0
 40
0.01969
 50
0.00000
 51
90.00000
  0
LINE
  8
Contour
 62
   7
 39
0.004
  6
CONTINUOUS
 10
8.66654
 20
1.76280
 30
 0
 11
8.23346
 21
1.76280
  0
ARC
  8
Contour
 62
   7
 39
0.004
  6
CONTINUOUS
 10
8.23346
 20
1.74311
 30
 0
 40
0.01969
 50
90.00000
 51
180.00000
  0
LINE
  8
Contour
 62
   7
 39
0.004
  6
CONTINUOUS
 10
8.21378
 20
1.74311
 30
 0
 11
8.21378
 21
1.50689
  0
ARC
  8
Contour
 62
   7
 39
0.004
  6
CONTINUOUS
 10
9.63346
 20
0.63189
 30
 0
 40
0.01969
 50
180.00000
 51
270.00000
  0
LINE
  8
Contour
 62
   7
 39
0.004
  6
CONTINUOUS
 10
9.63346
 20
0.61220
 30
 0
 11
10.06654
 21
0.61220
  0
ARC
  8
Contour
 62
   7
 39
0.004
  6
CONTINUOUS
 10
10.06654
 20
0.63189
 30
 0
 40
0.01969
 50
270.00000
 51
360.00000
  0
LINE
  8
Contour
 62
   7
 39
0.004
  6
CONTINUOUS
 10
10.08622
 20
0.63189
 30
 0
 11
10.08622
 21
0.86811
  0
ARC
  8
Contour
 62
   7
 39
0.004
  6
CONTINUOUS
 10
10.06654
 20
0.86811
 30
 0
 40
0.01969
 50
0.00000
 51
90.00000
  0
LINE
  8
Contour
 62
   7
 39
0.004
  6
CONTINUOUS
 10
10.06654
 20
0.88780
 30
 0
 11
9.63346
 21
0.88780
  0
ARC
  8
Contour
 62
   7
 39
0.004
  6
CONTINUOUS
 10
9.63346
 20
0.86811
 30
 0
 40
0.01969
 50
90.00000
 51
180.00000
  0
LINE
  8
Contour
 62
   7
 39
0.004
  6
CONTINUOUS
 10
9.61378
 20
0.86811
 30
 0
 11
9.61378
 21
0.63189
  0
ARC
  8
Contour
 62
   7
 39
0.004
  6
CONTINUOUS
 10
9.57441
 20
1.50689
 30
 0
 40
0.01969
 50
180.00000
 51
270.00000
  0
LINE
  8
Contour
 62
   7
 39
0.004
  6
CONTINUOUS
 10
9.57441
 20
1.48720
 30
 0
 11
10.12559
 21
1.48720
  0
ARC
  8
Contour
 62
   7
 39
0.004
  6
CONTINUOUS
 10
10.12559
 20
1.50689
 30
 0
 40
0.01969
 50
270.00000
 51
360.00000
  0
LINE
  8
Contour
 62
   7
 39
0.004
  6
CONTINUOUS
 10
10.14528
 20
1.50689
 30
 0
 11
10.14528
 21
1.74311
  0
ARC
  8
Contour
 62
   7
 39
0.004
  6
CONTINUOUS
 10
10.12559
 20
1.74311
 30
 0
 40
0.01969
 50
0.00000
 51
90.00000
  0
LINE
  8
Contour
 62
   7
 39
0.004
  6
CONTINUOUS
 10
10.12559
 20
1.76280
 30
 0
 11
9.57441
 21
1.76280
  0
ARC
  8
Contour
 62
   7
 39
0.004
  6
CONTINUOUS
 10
9.57441
 20
1.74311
 30
 0
 40
0.01969
 50
90.00000
 51
180.00000
  0
LINE
  8
Contour
 62
   7
 39
0.004
  6
CONTINUOUS
 10
9.55472
 20
1.74311
 30
 0
 11
9.55472
 21
1.50689
  0
ARC
  8
Contour
 62
   7
 39
0.004
  6
CONTINUOUS
 10
11.03346
 20
0.63189
 30
 0
 40
0.01969
 50
180.00000
 51
270.00000
  0
LINE
  8
Contour
 62
   7
 39
0.004
  6
CONTINUOUS
 10
11.03346
 20
0.61220
 30
 0
 11
11.46654
 21
0.61220
  0
ARC
  8
Contour
 62
   7
 39
0.004
  6
CONTINUOUS
 10
11.46654
 20
0.63189
 30
 0
 40
0.01969
 50
270.00000
 51
360.00000
  0
LINE
  8
Contour
 62
   7
 39
0.004
  6
CONTINUOUS
 10
11.48622
 20
0.63189
 30
 0
 11
11.48622
 21
0.86811
  0
ARC
  8
Contour
 62
   7
 39
0.004
  6
CONTINUOUS
 10
11.46654
 20
0.86811
 30
 0
 40
0.01969
 50
0.00000
 51
90.00000
  0
LINE
  8
Contour
 62
   7
 39
0.004
  6
CONTINUOUS
 10
11.46654
 20
0.88780
 30
 0
 11
11.03346
 21
0.88780
  0
ARC
  8
Contour
 62
   7
 39
0.004
  6
CONTINUOUS
 10
11.03346
 20
0.86811
 30
 0
 40
0.01969
 50
90.00000
 51
180.00000
  0
LINE
  8
Contour
 62
   7
 39
0.004
  6
CONTINUOUS
 10
11.01378
 20
0.86811
 30
 0
 11
11.01378
 21
0.63189
  0
ARC
  8
Contour
 62
   7
 39
0.004
  6
CONTINUOUS
 10
10.97441
 20
1.50689
 30
 0
 40
0.01969
 50
180.00000
 51
270.00000
  0
LINE
  8
Contour
 62
   7
 39
0.004
  6
CONTINUOUS
 10
10.97441
 20
1.48720
 30
 0
 11
11.52559
 21
1.48720
  0
ARC
  8
Contour
 62
   7
 39
0.004
  6
CONTINUOUS
 10
11.52559
 20
1.50689
 30
 0
 40
0.01969
 50
270.00000
 51
360.00000
  0
LINE
  8
Contour
 62
   7
 39
0.004
  6
CONTINUOUS
 10
11.54528
 20
1.50689
 30
 0
 11
11.54528
 21
1.74311
  0
ARC
  8
Contour
 62
   7
 39
0.004
  6
CONTINUOUS
 10
11.52559
 20
1.74311
 30
 0
 40
0.01969
 50
0.00000
 51
90.00000
  0
LINE
  8
Contour
 62
   7
 39
0.004
  6
CONTINUOUS
 10
11.52559
 20
1.76280
 30
 0
 11
10.97441
 21
1.76280
  0
ARC
  8
Contour
 62
   7
 39
0.004
  6
CONTINUOUS
 10
10.97441
 20
1.74311
 30
 0
 40
0.01969
 50
90.00000
 51
180.00000
  0
LINE
  8
Contour
 62
   7
 39
0.004
  6
CONTINUOUS
 10
10.95472
 20
1.74311
 30
 0
 11
10.95472
 21
1.50689
  0
ARC
  8
Contour
 62
   7
 39
0.004
  6
CONTINUOUS
 10
12.43346
 20
0.63189
 30
 0
 40
0.01969
 50
180.00000
 51
270.00000
  0
LINE
  8
Contour
 62
   7
 39
0.004
  6
CONTINUOUS
 10
12.43346
 20
0.61220
 30
 0
 11
12.86654
 21
0.61220
  0
ARC
  8
Contour
 62
   7
 39
0.004
  6
CONTINUOUS
 10
12.86654
 20
0.63189
 30
 0
 40
0.01969
 50
270.00000
 51
360.00000
  0
LINE
  8
Contour
 62
   7
 39
0.004
  6
CONTINUOUS
 10
12.88622
 20
0.63189
 30
 0
 11
12.88622
 21
0.86811
  0
ARC
  8
Contour
 62
   7
 39
0.004
  6
CONTINUOUS
 10
12.86654
 20
0.86811
 30
 0
 40
0.01969
 50
0.00000
 51
90.00000
  0
LINE
  8
Contour
 62
   7
 39
0.004
  6
CONTINUOUS
 10
12.86654
 20
0.88780
 30
 0
 11
12.43346
 21
0.88780
  0
ARC
  8
Contour
 62
   7
 39
0.004
  6
CONTINUOUS
 10
12.43346
 20
0.86811
 30
 0
 40
0.01969
 50
90.00000
 51
180.00000
  0
LINE
  8
Contour
 62
   7
 39
0.004
  6
CONTINUOUS
 10
12.41378
 20
0.86811
 30
 0
 11
12.41378
 21
0.63189
  0
ARC
  8
Contour
 62
   7
 39
0.004
  6
CONTINUOUS
 10
12.43346
 20
1.50689
 30
 0
 40
0.01969
 50
180.00000
 51
270.00000
  0
LINE
  8
Contour
 62
   7
 39
0.004
  6
CONTINUOUS
 10
12.43346
 20
1.48720
 30
 0
 11
12.86654
 21
1.48720
  0
ARC
  8
Contour
 62
   7
 39
0.004
  6
CONTINUOUS
 10
12.86654
 20
1.50689
 30
 0
 40
0.01969
 50
270.00000
 51
360.00000
  0
LINE
  8
Contour
 62
   7
 39
0.004
  6
CONTINUOUS
 10
12.88622
 20
1.50689
 30
 0
 11
12.88622
 21
1.74311
  0
ARC
  8
Contour
 62
   7
 39
0.004
  6
CONTINUOUS
 10
12.86654
 20
1.74311
 30
 0
 40
0.01969
 50
0.00000
 51
90.00000
  0
LINE
  8
Contour
 62
   7
 39
0.004
  6
CONTINUOUS
 10
12.86654
 20
1.76280
 30
 0
 11
12.43346
 21
1.76280
  0
ARC
  8
Contour
 62
   7
 39
0.004
  6
CONTINUOUS
 10
12.43346
 20
1.74311
 30
 0
 40
0.01969
 50
90.00000
 51
180.00000
  0
LINE
  8
Contour
 62
   7
 39
0.004
  6
CONTINUOUS
 10
12.41378
 20
1.74311
 30
 0
 11
12.41378
 21
1.50689
  0
ARC
  8
Contour
 62
   7
 39
0.004
  6
CONTINUOUS
 10
13.83346
 20
0.63189
 30
 0
 40
0.01969
 50
180.00000
 51
270.00000
  0
LINE
  8
Contour
 62
   7
 39
0.004
  6
CONTINUOUS
 10
13.83346
 20
0.61220
 30
 0
 11
14.26654
 21
0.61220
  0
ARC
  8
Contour
 62
   7
 39
0.004
  6
CONTINUOUS
 10
14.26654
 20
0.63189
 30
 0
 40
0.01969
 50
270.00000
 51
360.00000
  0
LINE
  8
Contour
 62
   7
 39
0.004
  6
CONTINUOUS
 10
14.28622
 20
0.63189
 30
 0
 11
14.28622
 21
0.86811
  0
ARC
  8
Contour
 62
   7
 39
0.004
  6
CONTINUOUS
 10
14.26654
 20
0.86811
 30
 0
 40
0.01969
 50
0.00000
 51
90.00000
  0
LINE
  8
Contour
 62
   7
 39
0.004
  6
CONTINUOUS
 10
14.26654
 20
0.88780
 30
 0
 11
13.83346
 21
0.88780
  0
ARC
  8
Contour
 62
   7
 39
0.004
  6
CONTINUOUS
 10
13.83346
 20
0.86811
 30
 0
 40
0.01969
 50
90.00000
 51
180.00000
  0
LINE
  8
Contour
 62
   7
 39
0.004
  6
CONTINUOUS
 10
13.81378
 20
0.86811
 30
 0
 11
13.81378
 21
0.63189
  0
ARC
  8
Contour
 62
   7
 39
0.004
  6
CONTINUOUS
 10
13.83346
 20
1.50689
 30
 0
 40
0.01969
 50
180.00000
 51
270.00000
  0
LINE
  8
Contour
 62
   7
 39
0.004
  6
CONTINUOUS
 10
13.83346
 20
1.48720
 30
 0
 11
14.26654
 21
1.48720
  0
ARC
  8
Contour
 62
   7
 39
0.004
  6
CONTINUOUS
 10
14.26654
 20
1.50689
 30
 0
 40
0.01969
 50
270.00000
 51
360.00000
  0
LINE
  8
Contour
 62
   7
 39
0.004
  6
CONTINUOUS
 10
14.28622
 20
1.50689
 30
 0
 11
14.28622
 21
1.74311
  0
ARC
  8
Contour
 62
   7
 39
0.004
  6
CONTINUOUS
 10
14.26654
 20
1.74311
 30
 0
 40
0.01969
 50
0.00000
 51
90.00000
  0
LINE
  8
Contour
 62
   7
 39
0.004
  6
CONTINUOUS
 10
14.26654
 20
1.76280
 30
 0
 11
13.83346
 21
1.76280
  0
ARC
  8
Contour
 62
   7
 39
0.004
  6
CONTINUOUS
 10
13.83346
 20
1.74311
 30
 0
 40
0.01969
 50
90.00000
 51
180.00000
  0
LINE
  8
Contour
 62
   7
 39
0.004
  6
CONTINUOUS
 10
13.81378
 20
1.74311
 30
 0
 11
13.81378
 21
1.50689
  0
LINE
  8
Reference_points
 62
   1
 39
0.004
  6
CONTINUOUS
 10
-0.06677
 20
0.00000
 30
 0
 11
0.06677
 21
0.00000
  0
LINE
  8
Reference_points
 62
   1
 39
0.004
  6
CONTINUOUS
 10
0.00000
 20
-0.06677
 30
 0
 11
0.00000
 21
0.06677
  0
LINE
  8
Reference_points
 62
   1
 39
0.004
  6
CONTINUOUS
 10
0.30823
 20
6.62512
 30
 0
 11
0.44177
 21
6.62512
  0
LINE
  8
Reference_points
 62
   1
 39
0.004
  6
CONTINUOUS
 10
0.37500
 20
6.55835
 30
 0
 11
0.37500
 21
6.69189
  0
LINE
  8
Reference_points
 62
   1
 39
0.004
  6
CONTINUOUS
 10
15.05823
 20
6.62500
 30
 0
 11
15.19177
 21
6.62500
  0
LINE
  8
Reference_points
 62
   1
 39
0.004
  6
CONTINUOUS
 10
15.12500
 20
6.55823
 30
 0
 11
15.12500
 21
6.69177
  0
LINE
  8
Reference_points
 62
   1
 39
0.004
  6
CONTINUOUS
 10
0.12122
 20
0.75000
 30
 0
 11
0.25476
 21
0.75000
  0
LINE
  8
Reference_points
 62
   1
 39
0.004
  6
CONTINUOUS
 10
0.18799
 20
0.68323
 30
 0
 11
0.18799
 21
0.81677
  0
LINE
  8
Reference_points
 62
   1
 39
0.004
  6
CONTINUOUS
 10
15.24524
 20
0.75000
 30
 0
 11
15.37878
 21
0.75000
  0
LINE
  8
Reference_points
 62
   1
 39
0.004
  6
CONTINUOUS
 10
15.31201
 20
0.68323
 30
 0
 11
15.31201
 21
0.81677
  0
LINE
  8
Reference_points
 62
   1
 39
0.004
  6
CONTINUOUS
 10
0.88323
 20
6.00000
 30
 0
 11
1.01677
 21
6.00000
  0
LINE
  8
Reference_points
 62
   1
 39
0.004
  6
CONTINUOUS
 10
0.95000
 20
5.93323
 30
 0
 11
0.95000
 21
6.06677
  0
LINE
  8
Reference_points
 62
   1
 39
0.004
  6
CONTINUOUS
 10
7.68323
 20
6.00000
 30
 0
 11
7.81677
 21
6.00000
  0
LINE
  8
Reference_points
 62
   1
 39
0.004
  6
CONTINUOUS
 10
7.75000
 20
5.93323
 30
 0
 11
7.75000
 21
6.06677
  0
LINE
  8
Reference_points
 62
   1
 39
0.004
  6
CONTINUOUS
 10
14.48323
 20
6.00000
 30
 0
 11
14.61677
 21
6.00000
  0
LINE
  8
Reference_points
 62
   1
 39
0.004
  6
CONTINUOUS
 10
14.55000
 20
5.93323
 30
 0
 11
14.55000
 21
6.06677
  0
LINE
  8
Reference_points
 62
   1
 39
0.004
  6
CONTINUOUS
 10
0.88323
 20
0.25000
 30
 0
 11
1.01677
 21
0.25000
  0
LINE
  8
Reference_points
 62
   1
 39
0.004
  6
CONTINUOUS
 10
0.95000
 20
0.18323
 30
 0
 11
0.95000
 21
0.31677
  0
LINE
  8
Reference_points
 62
   1
 39
0.004
  6
CONTINUOUS
 10
7.68323
 20
0.25000
 30
 0
 11
7.81677
 21
0.25000
  0
LINE
  8
Reference_points
 62
   1
 39
0.004
  6
CONTINUOUS
 10
7.75000
 20
0.18323
 30
 0
 11
7.75000
 21
0.31677
  0
LINE
  8
Reference_points
 62
   1
 39
0.004
  6
CONTINUOUS
 10
14.48323
 20
0.25000
 30
 0
 11
14.61677
 21
0.25000
  0
LINE
  8
Reference_points
 62
   1
 39
0.004
  6
CONTINUOUS
 10
14.55000
 20
0.18323
 30
 0
 11
14.55000
 21
0.31677
  0
LINE
  8
Reference_points
 62
   1
 39
0.004
  6
CONTINUOUS
 10
13.68323
 20
5.12500
 30
 0
 11
13.81677
 21
5.12500
  0
LINE
  8
Reference_points
 62
   1
 39
0.004
  6
CONTINUOUS
 10
13.75000
 20
5.05823
 30
 0
 11
13.75000
 21
5.19177
  0
LINE
  8
Reference_points
 62
   1
 39
0.004
  6
CONTINUOUS
 10
11.68823
 20
5.13386
 30
 0
 11
11.82177
 21
5.13386
  0
LINE
  8
Reference_points
 62
   1
 39
0.004
  6
CONTINUOUS
 10
11.75500
 20
5.06709
 30
 0
 11
11.75500
 21
5.20063
  0
LINE
  8
Reference_points
 62
   1
 39
0.004
  6
CONTINUOUS
 10
9.68323
 20
5.12500
 30
 0
 11
9.81677
 21
5.12500
  0
LINE
  8
Reference_points
 62
   1
 39
0.004
  6
CONTINUOUS
 10
9.75000
 20
5.05823
 30
 0
 11
9.75000
 21
5.19177
  0
LINE
  8
Reference_points
 62
   1
 39
0.004
  6
CONTINUOUS
 10
7.68823
 20
5.13386
 30
 0
 11
7.82177
 21
5.13386
  0
LINE
  8
Reference_points
 62
   1
 39
0.004
  6
CONTINUOUS
 10
7.75500
 20
5.06709
 30
 0
 11
7.75500
 21
5.20063
  0
LINE
  8
Reference_points
 62
   1
 39
0.004
  6
CONTINUOUS
 10
5.68323
 20
5.12500
 30
 0
 11
5.81677
 21
5.12500
  0
LINE
  8
Reference_points
 62
   1
 39
0.004
  6
CONTINUOUS
 10
5.75000
 20
5.05823
 30
 0
 11
5.75000
 21
5.19177
  0
LINE
  8
Reference_points
 62
   1
 39
0.004
  6
CONTINUOUS
 10
3.68823
 20
5.13386
 30
 0
 11
3.82177
 21
5.13386
  0
LINE
  8
Reference_points
 62
   1
 39
0.004
  6
CONTINUOUS
 10
3.75500
 20
5.06709
 30
 0
 11
3.75500
 21
5.20063
  0
LINE
  8
Reference_points
 62
   1
 39
0.004
  6
CONTINUOUS
 10
5.68323
 20
3.12500
 30
 0
 11
5.81677
 21
3.12500
  0
LINE
  8
Reference_points
 62
   1
 39
0.004
  6
CONTINUOUS
 10
5.75000
 20
3.05823
 30
 0
 11
5.75000
 21
3.19177
  0
LINE
  8
Reference_points
 62
   1
 39
0.004
  6
CONTINUOUS
 10
3.68823
 20
3.13386
 30
 0
 11
3.82177
 21
3.13386
  0
LINE
  8
Reference_points
 62
   1
 39
0.004
  6
CONTINUOUS
 10
3.75500
 20
3.06709
 30
 0
 11
3.75500
 21
3.20063
  0
LINE
  8
Reference_points
 62
   1
 39
0.004
  6
CONTINUOUS
 10
9.68323
 20
3.12500
 30
 0
 11
9.81677
 21
3.12500
  0
LINE
  8
Reference_points
 62
   1
 39
0.004
  6
CONTINUOUS
 10
9.75000
 20
3.05823
 30
 0
 11
9.75000
 21
3.19177
  0
LINE
  8
Reference_points
 62
   1
 39
0.004
  6
CONTINUOUS
 10
7.68823
 20
3.13386
 30
 0
 11
7.82177
 21
3.13386
  0
LINE
  8
Reference_points
 62
   1
 39
0.004
  6
CONTINUOUS
 10
7.75500
 20
3.06709
 30
 0
 11
7.75500
 21
3.20063
  0
LINE
  8
Reference_points
 62
   1
 39
0.004
  6
CONTINUOUS
 10
13.68323
 20
3.12500
 30
 0
 11
13.81677
 21
3.12500
  0
LINE
  8
Reference_points
 62
   1
 39
0.004
  6
CONTINUOUS
 10
13.75000
 20
3.05823
 30
 0
 11
13.75000
 21
3.19177
  0
LINE
  8
Reference_points
 62
   1
 39
0.004
  6
CONTINUOUS
 10
11.68823
 20
3.13386
 30
 0
 11
11.82177
 21
3.13386
  0
LINE
  8
Reference_points
 62
   1
 39
0.004
  6
CONTINUOUS
 10
11.75500
 20
3.06709
 30
 0
 11
11.75500
 21
3.20063
  0
LINE
  8
Reference_points
 62
   1
 39
0.004
  6
CONTINUOUS
 10
1.68823
 20
3.13386
 30
 0
 11
1.82177
 21
3.13386
  0
LINE
  8
Reference_points
 62
   1
 39
0.004
  6
CONTINUOUS
 10
1.75500
 20
3.06709
 30
 0
 11
1.75500
 21
3.20063
  0
LINE
  8
Reference_points
 62
   1
 39
0.004
  6
CONTINUOUS
 10
1.68823
 20
5.13386
 30
 0
 11
1.82177
 21
5.13386
  0
LINE
  8
Reference_points
 62
   1
 39
0.004
  6
CONTINUOUS
 10
1.75500
 20
5.06709
 30
 0
 11
1.75500
 21
5.20063
  0
LINE
  8
Reference_points
 62
   1
 39
0.004
  6
CONTINUOUS
 10
1.38323
 20
1.62500
 30
 0
 11
1.51677
 21
1.62500
  0
LINE
  8
Reference_points
 62
   1
 39
0.004
  6
CONTINUOUS
 10
1.45000
 20
1.55823
 30
 0
 11
1.45000
 21
1.69177
  0
LINE
  8
Reference_points
 62
   1
 39
0.004
  6
CONTINUOUS
 10
1.38323
 20
0.75000
 30
 0
 11
1.51677
 21
0.75000
  0
LINE
  8
Reference_points
 62
   1
 39
0.004
  6
CONTINUOUS
 10
1.45000
 20
0.68323
 30
 0
 11
1.45000
 21
0.81677
  0
LINE
  8
Reference_points
 62
   1
 39
0.004
  6
CONTINUOUS
 10
2.78323
 20
0.75000
 30
 0
 11
2.91677
 21
0.75000
  0
LINE
  8
Reference_points
 62
   1
 39
0.004
  6
CONTINUOUS
 10
2.85000
 20
0.68323
 30
 0
 11
2.85000
 21
0.81677
  0
LINE
  8
Reference_points
 62
   1
 39
0.004
  6
CONTINUOUS
 10
2.78323
 20
1.62500
 30
 0
 11
2.91677
 21
1.62500
  0
LINE
  8
Reference_points
 62
   1
 39
0.004
  6
CONTINUOUS
 10
2.85000
 20
1.55823
 30
 0
 11
2.85000
 21
1.69177
  0
LINE
  8
Reference_points
 62
   1
 39
0.004
  6
CONTINUOUS
 10
4.18323
 20
0.75000
 30
 0
 11
4.31677
 21
0.75000
  0
LINE
  8
Reference_points
 62
   1
 39
0.004
  6
CONTINUOUS
 10
4.25000
 20
0.68323
 30
 0
 11
4.25000
 21
0.81677
  0
LINE
  8
Reference_points
 62
   1
 39
0.004
  6
CONTINUOUS
 10
4.18323
 20
1.62500
 30
 0
 11
4.31677
 21
1.62500
  0
LINE
  8
Reference_points
 62
   1
 39
0.004
  6
CONTINUOUS
 10
4.25000
 20
1.55823
 30
 0
 11
4.25000
 21
1.69177
  0
LINE
  8
Reference_points
 62
   1
 39
0.004
  6
CONTINUOUS
 10
5.58323
 20
0.75000
 30
 0
 11
5.71677
 21
0.75000
  0
LINE
  8
Reference_points
 62
   1
 39
0.004
  6
CONTINUOUS
 10
5.65000
 20
0.68323
 30
 0
 11
5.65000
 21
0.81677
  0
LINE
  8
Reference_points
 62
   1
 39
0.004
  6
CONTINUOUS
 10
5.58323
 20
1.62500
 30
 0
 11
5.71677
 21
1.62500
  0
LINE
  8
Reference_points
 62
   1
 39
0.004
  6
CONTINUOUS
 10
5.65000
 20
1.55823
 30
 0
 11
5.65000
 21
1.69177
  0
LINE
  8
Reference_points
 62
   1
 39
0.004
  6
CONTINUOUS
 10
6.98323
 20
0.75000
 30
 0
 11
7.11677
 21
0.75000
  0
LINE
  8
Reference_points
 62
   1
 39
0.004
  6
CONTINUOUS
 10
7.05000
 20
0.68323
 30
 0
 11
7.05000
 21
0.81677
  0
LINE
  8
Reference_points
 62
   1
 39
0.004
  6
CONTINUOUS
 10
6.98323
 20
1.62500
 30
 0
 11
7.11677
 21
1.62500
  0
LINE
  8
Reference_points
 62
   1
 39
0.004
  6
CONTINUOUS
 10
7.05000
 20
1.55823
 30
 0
 11
7.05000
 21
1.69177
  0
LINE
  8
Reference_points
 62
   1
 39
0.004
  6
CONTINUOUS
 10
8.38323
 20
0.75000
 30
 0
 11
8.51677
 21
0.75000
  0
LINE
  8
Reference_points
 62
   1
 39
0.004
  6
CONTINUOUS
 10
8.45000
 20
0.68323
 30
 0
 11
8.45000
 21
0.81677
  0
LINE
  8
Reference_points
 62
   1
 39
0.004
  6
CONTINUOUS
 10
8.38323
 20
1.62500
 30
 0
 11
8.51677
 21
1.62500
  0
LINE
  8
Reference_points
 62
   1
 39
0.004
  6
CONTINUOUS
 10
8.45000
 20
1.55823
 30
 0
 11
8.45000
 21
1.69177
  0
LINE
  8
Reference_points
 62
   1
 39
0.004
  6
CONTINUOUS
 10
9.78323
 20
0.75000
 30
 0
 11
9.91677
 21
0.75000
  0
LINE
  8
Reference_points
 62
   1
 39
0.004
  6
CONTINUOUS
 10
9.85000
 20
0.68323
 30
 0
 11
9.85000
 21
0.81677
  0
LINE
  8
Reference_points
 62
   1
 39
0.004
  6
CONTINUOUS
 10
9.78323
 20
1.62500
 30
 0
 11
9.91677
 21
1.62500
  0
LINE
  8
Reference_points
 62
   1
 39
0.004
  6
CONTINUOUS
 10
9.85000
 20
1.55823
 30
 0
 11
9.85000
 21
1.69177
  0
LINE
  8
Reference_points
 62
   1
 39
0.004
  6
CONTINUOUS
 10
11.18323
 20
0.75000
 30
 0
 11
11.31677
 21
0.75000
  0
LINE
  8
Reference_points
 62
   1
 39
0.004
  6
CONTINUOUS
 10
11.25000
 20
0.68323
 30
 0
 11
11.25000
 21
0.81677
  0
LINE
  8
Reference_points
 62
   1
 39
0.004
  6
CONTINUOUS
 10
11.18323
 20
1.62500
 30
 0
 11
11.31677
 21
1.62500
  0
LINE
  8
Reference_points
 62
   1
 39
0.004
  6
CONTINUOUS
 10
11.25000
 20
1.55823
 30
 0
 11
11.25000
 21
1.69177
  0
LINE
  8
Reference_points
 62
   1
 39
0.004
  6
CONTINUOUS
 10
12.58323
 20
0.75000
 30
 0
 11
12.71677
 21
0.75000
  0
LINE
  8
Reference_points
 62
   1
 39
0.004
  6
CONTINUOUS
 10
12.65000
 20
0.68323
 30
 0
 11
12.65000
 21
0.81677
  0
LINE
  8
Reference_points
 62
   1
 39
0.004
  6
CONTINUOUS
 10
12.58323
 20
1.62500
 30
 0
 11
12.71677
 21
1.62500
  0
LINE
  8
Reference_points
 62
   1
 39
0.004
  6
CONTINUOUS
 10
12.65000
 20
1.55823
 30
 0
 11
12.65000
 21
1.69177
  0
LINE
  8
Reference_points
 62
   1
 39
0.004
  6
CONTINUOUS
 10
13.98323
 20
0.75000
 30
 0
 11
14.11677
 21
0.75000
  0
LINE
  8
Reference_points
 62
   1
 39
0.004
  6
CONTINUOUS
 10
14.05000
 20
0.68323
 30
 0
 11
14.05000
 21
0.81677
  0
LINE
  8
Reference_points
 62
   1
 39
0.004
  6
CONTINUOUS
 10
13.98323
 20
1.62500
 30
 0
 11
14.11677
 21
1.62500
  0
LINE
  8
Reference_points
 62
   1
 39
0.004
  6
CONTINUOUS
 10
14.05000
 20
1.55823
 30
 0
 11
14.05000
 21
1.69177
  0
ENDSEC
  0
EOF
