<?xml version="1.0" standalone="no"?>
<!DOCTYPE svg PUBLIC "-//W3C//DTD SVG 1.1//EN" 
  "http://www.w3.org/Graphics/SVG/1.1/DTD/svg11.dtd">
<svg width="393.700mm" height="177.800mm" version="1.1"
     viewBox="0 0 393.700 177.800"
     xmlns="http://www.w3.org/2000/svg"  xmlns:xlink="http://www.w3.org/1999/xlink" 
     xmlns:fpd="http://www.schaeffer-ag.de">
  <desc>Created with the Front Panel Designer by the export of the file 'pe-microsynth.fpd'.</desc>
  <defs>
    <pattern id="revside-fill" x="1" y="1" width="3.937" height="3.937" patternUnits="userSpaceOnUse">
      <line x1="0" y1="0" x2="3.937" y2="3.937" style="stroke-width:0.394; stroke:black; stroke-dasharray:none;" />
      <line x1="0" y1="3.937" x2="3.937" y2="0" style="stroke-width:0.394; stroke:black; stroke-dasharray:none;" />
    </pattern>
    <pattern id="revside-fill-silver" x="1" y="1" width="3.937" height="3.937" patternUnits="userSpaceOnUse">
      <line x1="0" y1="0" x2="3.937" y2="3.937" style="stroke-width:0.394; stroke:#e0e0e0; stroke-dasharray:none;" />
      <line x1="0" y1="3.937" x2="3.937" y2="0" style="stroke-width:0.394; stroke:#e0e0e0; stroke-dasharray:none;" />
    </pattern>
  </defs>
<g transform="scale(1,-1) translate( -0.000, -177.800)" 
   fill-rule="evenodd"
   style="stroke-linecap:round; stroke-linejoin:round; stroke-opacity:1.0; stroke-opacity:1.0;">
<path d="
M393.700 177.800
L393.700 0.000
L0.000 0.000
L0.000 177.800
L393.700 177.800
" 
fill="#c0c0c0" vector-effect="non-scaling-stroke" stroke="#000000" stroke-width="0.100mm" fpd:visible="front back" />
<path d="
M7.138 168.278
A2.387,2.387 0 1,0 11.912,168.278
A2.387,2.387 0 1,0 7.138,168.278
" 
fill="#ffffff" vector-effect="non-scaling-stroke" stroke="#000000" stroke-width="0.100mm" fpd:visible="front back" fpd:print_element="0" />
<path d="
M381.788 168.275
A2.387,2.387 0 1,0 386.562,168.275
A2.387,2.387 0 1,0 381.788,168.275
" 
fill="#ffffff" vector-effect="non-scaling-stroke" stroke="#000000" stroke-width="0.100mm" fpd:visible="front back" fpd:print_element="0" />
<path d="
M2.388 19.050
A2.387,2.387 0 1,0 7.162,19.050
A2.387,2.387 0 1,0 2.388,19.050
" 
fill="#ffffff" vector-effect="non-scaling-stroke" stroke="#000000" stroke-width="0.100mm" fpd:visible="front back" fpd:print_element="0" />
<path d="
M386.538 19.050
A2.387,2.387 0 1,0 391.312,19.050
A2.387,2.387 0 1,0 386.538,19.050
" 
fill="#ffffff" vector-effect="non-scaling-stroke" stroke="#000000" stroke-width="0.100mm" fpd:visible="front back" fpd:print_element="0" />
<path d="
M22.543 152.400
A1.587,1.587 0 1,0 25.717,152.400
A1.587,1.587 0 1,0 22.543,152.400
" 
fill="#ffffff" vector-effect="non-scaling-stroke" stroke="#000000" stroke-width="0.100mm" fpd:visible="front back" fpd:print_element="0" />
<path d="
M195.263 152.400
A1.587,1.587 0 1,0 198.437,152.400
A1.587,1.587 0 1,0 195.263,152.400
" 
fill="#ffffff" vector-effect="non-scaling-stroke" stroke="#000000" stroke-width="0.100mm" fpd:visible="front back" fpd:print_element="0" />
<path d="
M367.983 152.400
A1.587,1.587 0 1,0 371.157,152.400
A1.587,1.587 0 1,0 367.983,152.400
" 
fill="#ffffff" vector-effect="non-scaling-stroke" stroke="#000000" stroke-width="0.100mm" fpd:visible="front back" fpd:print_element="0" />
<path d="
M22.543 6.350
A1.587,1.587 0 1,0 25.717,6.350
A1.587,1.587 0 1,0 22.543,6.350
" 
fill="#ffffff" vector-effect="non-scaling-stroke" stroke="#000000" stroke-width="0.100mm" fpd:visible="front back" fpd:print_element="0" />
<path d="
M195.263 6.350
A1.587,1.587 0 1,0 198.437,6.350
A1.587,1.587 0 1,0 195.263,6.350
" 
fill="#ffffff" vector-effect="non-scaling-stroke" stroke="#000000" stroke-width="0.100mm" fpd:visible="front back" fpd:print_element="0" />
<path d="
M367.983 6.350
A1.587,1.587 0 1,0 371.157,6.350
A1.587,1.587 0 1,0 367.983,6.350
" 
fill="#ffffff" vector-effect="non-scaling-stroke" stroke="#000000" stroke-width="0.100mm" fpd:visible="front back" fpd:print_element="0" />
<path d="
M344.488 130.175
A4.762,4.762 0 1,0 354.012,130.175
A4.762,4.762 0 1,0 344.488,130.175
" 
fill="#ffffff" vector-effect="non-scaling-stroke" stroke="#000000" stroke-width="0.100mm" fpd:visible="front back" fpd:print_element="0" />
<path d="
M293.815 130.400
A4.762,4.762 0 1,0 303.339,130.400
A4.762,4.762 0 1,0 293.815,130.400
" 
fill="#ffffff" vector-effect="non-scaling-stroke" stroke="#000000" stroke-width="0.100mm" fpd:visible="front back" fpd:print_element="0" />
<path d="
M242.888 130.175
A4.762,4.762 0 1,0 252.412,130.175
A4.762,4.762 0 1,0 242.888,130.175
" 
fill="#ffffff" vector-effect="non-scaling-stroke" stroke="#000000" stroke-width="0.100mm" fpd:visible="front back" fpd:print_element="0" />
<path d="
M192.215 130.400
A4.762,4.762 0 1,0 201.739,130.400
A4.762,4.762 0 1,0 192.215,130.400
" 
fill="#ffffff" vector-effect="non-scaling-stroke" stroke="#000000" stroke-width="0.100mm" fpd:visible="front back" fpd:print_element="0" />
<path d="
M141.288 130.175
A4.762,4.762 0 1,0 150.812,130.175
A4.762,4.762 0 1,0 141.288,130.175
" 
fill="#ffffff" vector-effect="non-scaling-stroke" stroke="#000000" stroke-width="0.100mm" fpd:visible="front back" fpd:print_element="0" />
<path d="
M90.615 130.400
A4.762,4.762 0 1,0 100.139,130.400
A4.762,4.762 0 1,0 90.615,130.400
" 
fill="#ffffff" vector-effect="non-scaling-stroke" stroke="#000000" stroke-width="0.100mm" fpd:visible="front back" fpd:print_element="0" />
<path d="
M141.288 79.375
A4.762,4.762 0 1,0 150.812,79.375
A4.762,4.762 0 1,0 141.288,79.375
" 
fill="#ffffff" vector-effect="non-scaling-stroke" stroke="#000000" stroke-width="0.100mm" fpd:visible="front back" fpd:print_element="0" />
<path d="
M90.615 79.600
A4.762,4.762 0 1,0 100.139,79.600
A4.762,4.762 0 1,0 90.615,79.600
" 
fill="#ffffff" vector-effect="non-scaling-stroke" stroke="#000000" stroke-width="0.100mm" fpd:visible="front back" fpd:print_element="0" />
<path d="
M242.888 79.375
A4.762,4.762 0 1,0 252.412,79.375
A4.762,4.762 0 1,0 242.888,79.375
" 
fill="#ffffff" vector-effect="non-scaling-stroke" stroke="#000000" stroke-width="0.100mm" fpd:visible="front back" fpd:print_element="0" />
<path d="
M192.215 79.600
A4.762,4.762 0 1,0 201.739,79.600
A4.762,4.762 0 1,0 192.215,79.600
" 
fill="#ffffff" vector-effect="non-scaling-stroke" stroke="#000000" stroke-width="0.100mm" fpd:visible="front back" fpd:print_element="0" />
<path d="
M344.488 79.375
A4.762,4.762 0 1,0 354.012,79.375
A4.762,4.762 0 1,0 344.488,79.375
" 
fill="#ffffff" vector-effect="non-scaling-stroke" stroke="#000000" stroke-width="0.100mm" fpd:visible="front back" fpd:print_element="0" />
<path d="
M293.815 79.600
A4.762,4.762 0 1,0 303.339,79.600
A4.762,4.762 0 1,0 293.815,79.600
" 
fill="#ffffff" vector-effect="non-scaling-stroke" stroke="#000000" stroke-width="0.100mm" fpd:visible="front back" fpd:print_element="0" />
<path d="
M39.815 79.600
A4.762,4.762 0 1,0 49.339,79.600
A4.762,4.762 0 1,0 39.815,79.600
" 
fill="#ffffff" vector-effect="non-scaling-stroke" stroke="#000000" stroke-width="0.100mm" fpd:visible="front back" fpd:print_element="0" />
<path d="
M39.815 130.400
A4.762,4.762 0 1,0 49.339,130.400
A4.762,4.762 0 1,0 39.815,130.400
" 
fill="#ffffff" vector-effect="non-scaling-stroke" stroke="#000000" stroke-width="0.100mm" fpd:visible="front back" fpd:print_element="0" />
<path d="
M34.443 41.275
A2.387,2.387 0 1,0 39.217,41.275
A2.387,2.387 0 1,0 34.443,41.275
" 
fill="#ffffff" vector-effect="non-scaling-stroke" stroke="#000000" stroke-width="0.100mm" fpd:visible="front back" fpd:print_element="0" />
<path d="
M29.330 16.050
A0.500,0.500 0 0,1 29.830,15.550
L43.830 15.550
A0.500,0.500 0 0,1 44.330,16.050
L44.330 22.050
A0.500,0.500 0 0,1 43.830,22.550
L29.830 22.550
A0.500,0.500 0 0,1 29.330,22.050
L29.330 16.050
" 
fill="#ffffff" vector-effect="non-scaling-stroke" stroke="#000000" stroke-width="0.100mm" fpd:visible="front back" fpd:print_element="0" />
<path d="
M64.890 16.050
A0.500,0.500 0 0,1 65.390,15.550
L79.390 15.550
A0.500,0.500 0 0,1 79.890,16.050
L79.890 22.050
A0.500,0.500 0 0,1 79.390,22.550
L65.390 22.550
A0.500,0.500 0 0,1 64.890,22.050
L64.890 16.050
" 
fill="#ffffff" vector-effect="non-scaling-stroke" stroke="#000000" stroke-width="0.100mm" fpd:visible="front back" fpd:print_element="0" />
<path d="
M64.890 38.275
A0.500,0.500 0 0,1 65.390,37.775
L79.390 37.775
A0.500,0.500 0 0,1 79.890,38.275
L79.890 44.275
A0.500,0.500 0 0,1 79.390,44.775
L65.390 44.775
A0.500,0.500 0 0,1 64.890,44.275
L64.890 38.275
" 
fill="#ffffff" vector-effect="non-scaling-stroke" stroke="#000000" stroke-width="0.100mm" fpd:visible="front back" fpd:print_element="0" />
<path d="
M100.450 16.050
A0.500,0.500 0 0,1 100.950,15.550
L114.950 15.550
A0.500,0.500 0 0,1 115.450,16.050
L115.450 22.050
A0.500,0.500 0 0,1 114.950,22.550
L100.950 22.550
A0.500,0.500 0 0,1 100.450,22.050
L100.450 16.050
" 
fill="#ffffff" vector-effect="non-scaling-stroke" stroke="#000000" stroke-width="0.100mm" fpd:visible="front back" fpd:print_element="0" />
<path d="
M100.450 38.275
A0.500,0.500 0 0,1 100.950,37.775
L114.950 37.775
A0.500,0.500 0 0,1 115.450,38.275
L115.450 44.275
A0.500,0.500 0 0,1 114.950,44.775
L100.950 44.775
A0.500,0.500 0 0,1 100.450,44.275
L100.450 38.275
" 
fill="#ffffff" vector-effect="non-scaling-stroke" stroke="#000000" stroke-width="0.100mm" fpd:visible="front back" fpd:print_element="0" />
<path d="
M137.510 16.050
A0.500,0.500 0 0,1 138.010,15.550
L149.010 15.550
A0.500,0.500 0 0,1 149.510,16.050
L149.510 22.050
A0.500,0.500 0 0,1 149.010,22.550
L138.010 22.550
A0.500,0.500 0 0,1 137.510,22.050
L137.510 16.050
" 
fill="#ffffff" vector-effect="non-scaling-stroke" stroke="#000000" stroke-width="0.100mm" fpd:visible="front back" fpd:print_element="0" />
<path d="
M137.510 38.275
A0.500,0.500 0 0,1 138.010,37.775
L149.010 37.775
A0.500,0.500 0 0,1 149.510,38.275
L149.510 44.275
A0.500,0.500 0 0,1 149.010,44.775
L138.010 44.775
A0.500,0.500 0 0,1 137.510,44.275
L137.510 38.275
" 
fill="#ffffff" vector-effect="non-scaling-stroke" stroke="#000000" stroke-width="0.100mm" fpd:visible="front back" fpd:print_element="0" />
<path d="
M173.070 16.050
A0.500,0.500 0 0,1 173.570,15.550
L184.570 15.550
A0.500,0.500 0 0,1 185.070,16.050
L185.070 22.050
A0.500,0.500 0 0,1 184.570,22.550
L173.570 22.550
A0.500,0.500 0 0,1 173.070,22.050
L173.070 16.050
" 
fill="#ffffff" vector-effect="non-scaling-stroke" stroke="#000000" stroke-width="0.100mm" fpd:visible="front back" fpd:print_element="0" />
<path d="
M171.570 38.275
A0.500,0.500 0 0,1 172.070,37.775
L186.070 37.775
A0.500,0.500 0 0,1 186.570,38.275
L186.570 44.275
A0.500,0.500 0 0,1 186.070,44.775
L172.070 44.775
A0.500,0.500 0 0,1 171.570,44.275
L171.570 38.275
" 
fill="#ffffff" vector-effect="non-scaling-stroke" stroke="#000000" stroke-width="0.100mm" fpd:visible="front back" fpd:print_element="0" />
<path d="
M208.630 16.050
A0.500,0.500 0 0,1 209.130,15.550
L220.130 15.550
A0.500,0.500 0 0,1 220.630,16.050
L220.630 22.050
A0.500,0.500 0 0,1 220.130,22.550
L209.130 22.550
A0.500,0.500 0 0,1 208.630,22.050
L208.630 16.050
" 
fill="#ffffff" vector-effect="non-scaling-stroke" stroke="#000000" stroke-width="0.100mm" fpd:visible="front back" fpd:print_element="0" />
<path d="
M208.630 38.275
A0.500,0.500 0 0,1 209.130,37.775
L220.130 37.775
A0.500,0.500 0 0,1 220.630,38.275
L220.630 44.275
A0.500,0.500 0 0,1 220.130,44.775
L209.130 44.775
A0.500,0.500 0 0,1 208.630,44.275
L208.630 38.275
" 
fill="#ffffff" vector-effect="non-scaling-stroke" stroke="#000000" stroke-width="0.100mm" fpd:visible="front back" fpd:print_element="0" />
<path d="
M244.190 16.050
A0.500,0.500 0 0,1 244.690,15.550
L255.690 15.550
A0.500,0.500 0 0,1 256.190,16.050
L256.190 22.050
A0.500,0.500 0 0,1 255.690,22.550
L244.690 22.550
A0.500,0.500 0 0,1 244.190,22.050
L244.190 16.050
" 
fill="#ffffff" vector-effect="non-scaling-stroke" stroke="#000000" stroke-width="0.100mm" fpd:visible="front back" fpd:print_element="0" />
<path d="
M242.690 38.275
A0.500,0.500 0 0,1 243.190,37.775
L257.190 37.775
A0.500,0.500 0 0,1 257.690,38.275
L257.690 44.275
A0.500,0.500 0 0,1 257.190,44.775
L243.190 44.775
A0.500,0.500 0 0,1 242.690,44.275
L242.690 38.275
" 
fill="#ffffff" vector-effect="non-scaling-stroke" stroke="#000000" stroke-width="0.100mm" fpd:visible="front back" fpd:print_element="0" />
<path d="
M279.750 16.050
A0.500,0.500 0 0,1 280.250,15.550
L291.250 15.550
A0.500,0.500 0 0,1 291.750,16.050
L291.750 22.050
A0.500,0.500 0 0,1 291.250,22.550
L280.250 22.550
A0.500,0.500 0 0,1 279.750,22.050
L279.750 16.050
" 
fill="#ffffff" vector-effect="non-scaling-stroke" stroke="#000000" stroke-width="0.100mm" fpd:visible="front back" fpd:print_element="0" />
<path d="
M278.250 38.275
A0.500,0.500 0 0,1 278.750,37.775
L292.750 37.775
A0.500,0.500 0 0,1 293.250,38.275
L293.250 44.275
A0.500,0.500 0 0,1 292.750,44.775
L278.750 44.775
A0.500,0.500 0 0,1 278.250,44.275
L278.250 38.275
" 
fill="#ffffff" vector-effect="non-scaling-stroke" stroke="#000000" stroke-width="0.100mm" fpd:visible="front back" fpd:print_element="0" />
<path d="
M315.310 16.050
A0.500,0.500 0 0,1 315.810,15.550
L326.810 15.550
A0.500,0.500 0 0,1 327.310,16.050
L327.310 22.050
A0.500,0.500 0 0,1 326.810,22.550
L315.810 22.550
A0.500,0.500 0 0,1 315.310,22.050
L315.310 16.050
" 
fill="#ffffff" vector-effect="non-scaling-stroke" stroke="#000000" stroke-width="0.100mm" fpd:visible="front back" fpd:print_element="0" />
<path d="
M315.310 38.275
A0.500,0.500 0 0,1 315.810,37.775
L326.810 37.775
A0.500,0.500 0 0,1 327.310,38.275
L327.310 44.275
A0.500,0.500 0 0,1 326.810,44.775
L315.810 44.775
A0.500,0.500 0 0,1 315.310,44.275
L315.310 38.275
" 
fill="#ffffff" vector-effect="non-scaling-stroke" stroke="#000000" stroke-width="0.100mm" fpd:visible="front back" fpd:print_element="0" />
<path d="
M350.870 16.050
A0.500,0.500 0 0,1 351.370,15.550
L362.370 15.550
A0.500,0.500 0 0,1 362.870,16.050
L362.870 22.050
A0.500,0.500 0 0,1 362.370,22.550
L351.370 22.550
A0.500,0.500 0 0,1 350.870,22.050
L350.870 16.050
" 
fill="#ffffff" vector-effect="non-scaling-stroke" stroke="#000000" stroke-width="0.100mm" fpd:visible="front back" fpd:print_element="0" />
<path d="
M350.870 38.275
A0.500,0.500 0 0,1 351.370,37.775
L362.370 37.775
A0.500,0.500 0 0,1 362.870,38.275
L362.870 44.275
A0.500,0.500 0 0,1 362.370,44.775
L351.370 44.775
A0.500,0.500 0 0,1 350.870,44.275
L350.870 38.275
" 
fill="#ffffff" vector-effect="non-scaling-stroke" stroke="#000000" stroke-width="0.100mm" fpd:visible="front back" fpd:print_element="0" />
<path d="
M393.700 177.800
L393.700 0.000
L0.000 0.000
L0.000 177.800
L393.700 177.800
" 
fill="none" vector-effect="non-scaling-stroke" stroke="#000000" stroke-width="0.100mm" fpd:visible="front back" />
<path d="
M-1.685 0.000
L1.685 0.000
M0.000 -1.685
L0.000 1.685
" 
fill="none" vector-effect="non-scaling-stroke" stroke="#ff0000" stroke-width="0.100mm" />
<path d="
M7.840 168.278
L11.210 168.278
M9.525 166.593
L9.525 169.963
" 
fill="none" vector-effect="non-scaling-stroke" stroke="#ff0000" stroke-width="0.100mm" />
<path d="
M382.490 168.275
L385.860 168.275
M384.175 166.590
L384.175 169.960
" 
fill="none" vector-effect="non-scaling-stroke" stroke="#ff0000" stroke-width="0.100mm" />
<path d="
M3.090 19.050
L6.460 19.050
M4.775 17.365
L4.775 20.735
" 
fill="none" vector-effect="non-scaling-stroke" stroke="#ff0000" stroke-width="0.100mm" />
<path d="
M387.240 19.050
L390.610 19.050
M388.925 17.365
L388.925 20.735
" 
fill="none" vector-effect="non-scaling-stroke" stroke="#ff0000" stroke-width="0.100mm" />
<path d="
M22.445 152.400
L25.815 152.400
M24.130 150.715
L24.130 154.085
" 
fill="none" vector-effect="non-scaling-stroke" stroke="#ff0000" stroke-width="0.100mm" />
<path d="
M195.165 152.400
L198.535 152.400
M196.850 150.715
L196.850 154.085
" 
fill="none" vector-effect="non-scaling-stroke" stroke="#ff0000" stroke-width="0.100mm" />
<path d="
M367.885 152.400
L371.255 152.400
M369.570 150.715
L369.570 154.085
" 
fill="none" vector-effect="non-scaling-stroke" stroke="#ff0000" stroke-width="0.100mm" />
<path d="
M22.445 6.350
L25.815 6.350
M24.130 4.665
L24.130 8.035
" 
fill="none" vector-effect="non-scaling-stroke" stroke="#ff0000" stroke-width="0.100mm" />
<path d="
M195.165 6.350
L198.535 6.350
M196.850 4.665
L196.850 8.035
" 
fill="none" vector-effect="non-scaling-stroke" stroke="#ff0000" stroke-width="0.100mm" />
<path d="
M367.885 6.350
L371.255 6.350
M369.570 4.665
L369.570 8.035
" 
fill="none" vector-effect="non-scaling-stroke" stroke="#ff0000" stroke-width="0.100mm" />
<path d="
M347.565 130.175
L350.935 130.175
M349.250 128.490
L349.250 131.860
" 
fill="none" vector-effect="non-scaling-stroke" stroke="#ff0000" stroke-width="0.100mm" />
<path d="
M296.892 130.400
L300.262 130.400
M298.577 128.715
L298.577 132.085
" 
fill="none" vector-effect="non-scaling-stroke" stroke="#ff0000" stroke-width="0.100mm" />
<path d="
M245.965 130.175
L249.335 130.175
M247.650 128.490
L247.650 131.860
" 
fill="none" vector-effect="non-scaling-stroke" stroke="#ff0000" stroke-width="0.100mm" />
<path d="
M195.292 130.400
L198.662 130.400
M196.977 128.715
L196.977 132.085
" 
fill="none" vector-effect="non-scaling-stroke" stroke="#ff0000" stroke-width="0.100mm" />
<path d="
M144.365 130.175
L147.735 130.175
M146.050 128.490
L146.050 131.860
" 
fill="none" vector-effect="non-scaling-stroke" stroke="#ff0000" stroke-width="0.100mm" />
<path d="
M93.692 130.400
L97.062 130.400
M95.377 128.715
L95.377 132.085
" 
fill="none" vector-effect="non-scaling-stroke" stroke="#ff0000" stroke-width="0.100mm" />
<path d="
M144.365 79.375
L147.735 79.375
M146.050 77.690
L146.050 81.060
" 
fill="none" vector-effect="non-scaling-stroke" stroke="#ff0000" stroke-width="0.100mm" />
<path d="
M93.692 79.600
L97.062 79.600
M95.377 77.915
L95.377 81.285
" 
fill="none" vector-effect="non-scaling-stroke" stroke="#ff0000" stroke-width="0.100mm" />
<path d="
M245.965 79.375
L249.335 79.375
M247.650 77.690
L247.650 81.060
" 
fill="none" vector-effect="non-scaling-stroke" stroke="#ff0000" stroke-width="0.100mm" />
<path d="
M195.292 79.600
L198.662 79.600
M196.977 77.915
L196.977 81.285
" 
fill="none" vector-effect="non-scaling-stroke" stroke="#ff0000" stroke-width="0.100mm" />
<path d="
M347.565 79.375
L350.935 79.375
M349.250 77.690
L349.250 81.060
" 
fill="none" vector-effect="non-scaling-stroke" stroke="#ff0000" stroke-width="0.100mm" />
<path d="
M296.892 79.600
L300.262 79.600
M298.577 77.915
L298.577 81.285
" 
fill="none" vector-effect="non-scaling-stroke" stroke="#ff0000" stroke-width="0.100mm" />
<path d="
M42.892 79.600
L46.262 79.600
M44.577 77.915
L44.577 81.285
" 
fill="none" vector-effect="non-scaling-stroke" stroke="#ff0000" stroke-width="0.100mm" />
<path d="
M42.892 130.400
L46.262 130.400
M44.577 128.715
L44.577 132.085
" 
fill="none" vector-effect="non-scaling-stroke" stroke="#ff0000" stroke-width="0.100mm" />
<path d="
M35.145 41.275
L38.515 41.275
M36.830 39.590
L36.830 42.960
" 
fill="none" vector-effect="non-scaling-stroke" stroke="#ff0000" stroke-width="0.100mm" />
<path d="
M35.145 19.050
L38.515 19.050
M36.830 17.365
L36.830 20.735
" 
fill="none" vector-effect="non-scaling-stroke" stroke="#ff0000" stroke-width="0.100mm" />
<path d="
M70.705 19.050
L74.075 19.050
M72.390 17.365
L72.390 20.735
" 
fill="none" vector-effect="non-scaling-stroke" stroke="#ff0000" stroke-width="0.100mm" />
<path d="
M70.705 41.275
L74.075 41.275
M72.390 39.590
L72.390 42.960
" 
fill="none" vector-effect="non-scaling-stroke" stroke="#ff0000" stroke-width="0.100mm" />
<path d="
M106.265 19.050
L109.635 19.050
M107.950 17.365
L107.950 20.735
" 
fill="none" vector-effect="non-scaling-stroke" stroke="#ff0000" stroke-width="0.100mm" />
<path d="
M106.265 41.275
L109.635 41.275
M107.950 39.590
L107.950 42.960
" 
fill="none" vector-effect="non-scaling-stroke" stroke="#ff0000" stroke-width="0.100mm" />
<path d="
M141.825 19.050
L145.195 19.050
M143.510 17.365
L143.510 20.735
" 
fill="none" vector-effect="non-scaling-stroke" stroke="#ff0000" stroke-width="0.100mm" />
<path d="
M141.825 41.275
L145.195 41.275
M143.510 39.590
L143.510 42.960
" 
fill="none" vector-effect="non-scaling-stroke" stroke="#ff0000" stroke-width="0.100mm" />
<path d="
M177.385 19.050
L180.755 19.050
M179.070 17.365
L179.070 20.735
" 
fill="none" vector-effect="non-scaling-stroke" stroke="#ff0000" stroke-width="0.100mm" />
<path d="
M177.385 41.275
L180.755 41.275
M179.070 39.590
L179.070 42.960
" 
fill="none" vector-effect="non-scaling-stroke" stroke="#ff0000" stroke-width="0.100mm" />
<path d="
M212.945 19.050
L216.315 19.050
M214.630 17.365
L214.630 20.735
" 
fill="none" vector-effect="non-scaling-stroke" stroke="#ff0000" stroke-width="0.100mm" />
<path d="
M212.945 41.275
L216.315 41.275
M214.630 39.590
L214.630 42.960
" 
fill="none" vector-effect="non-scaling-stroke" stroke="#ff0000" stroke-width="0.100mm" />
<path d="
M248.505 19.050
L251.875 19.050
M250.190 17.365
L250.190 20.735
" 
fill="none" vector-effect="non-scaling-stroke" stroke="#ff0000" stroke-width="0.100mm" />
<path d="
M248.505 41.275
L251.875 41.275
M250.190 39.590
L250.190 42.960
" 
fill="none" vector-effect="non-scaling-stroke" stroke="#ff0000" stroke-width="0.100mm" />
<path d="
M284.065 19.050
L287.435 19.050
M285.750 17.365
L285.750 20.735
" 
fill="none" vector-effect="non-scaling-stroke" stroke="#ff0000" stroke-width="0.100mm" />
<path d="
M284.065 41.275
L287.435 41.275
M285.750 39.590
L285.750 42.960
" 
fill="none" vector-effect="non-scaling-stroke" stroke="#ff0000" stroke-width="0.100mm" />
<path d="
M319.625 19.050
L322.995 19.050
M321.310 17.365
L321.310 20.735
" 
fill="none" vector-effect="non-scaling-stroke" stroke="#ff0000" stroke-width="0.100mm" />
<path d="
M319.625 41.275
L322.995 41.275
M321.310 39.590
L321.310 42.960
" 
fill="none" vector-effect="non-scaling-stroke" stroke="#ff0000" stroke-width="0.100mm" />
<path d="
M355.185 19.050
L358.555 19.050
M356.870 17.365
L356.870 20.735
" 
fill="none" vector-effect="non-scaling-stroke" stroke="#ff0000" stroke-width="0.100mm" />
<path d="
M355.185 41.275
L358.555 41.275
M356.870 39.590
L356.870 42.960
" 
fill="none" vector-effect="non-scaling-stroke" stroke="#ff0000" stroke-width="0.100mm" />
</g>
</svg>
