<?xml version="1.0" standalone="no"?>
<!DOCTYPE svg PUBLIC "-//W3C//DTD SVG 1.1//EN" 
  "http://www.w3.org/Graphics/SVG/1.1/DTD/svg11.dtd">
<svg width="393.700mm" height="177.800mm" version="1.1"
     viewBox="0 0 393.700 177.800"
     xmlns="http://www.w3.org/2000/svg"  xmlns:xlink="http://www.w3.org/1999/xlink" 
     xmlns:fpd="http://www.schaeffer-ag.de">
  <desc>Created with the Front Panel Designer by the export of the file 'pe-microsynth.fpd'.</desc>
  <defs>
    <pattern id="revside-fill" x="1" y="1" width="3.937" height="3.937" patternUnits="userSpaceOnUse">
      <line x1="0" y1="0" x2="3.937" y2="3.937" style="stroke-width:0.394; stroke:black; stroke-dasharray:none;" />
      <line x1="0" y1="3.937" x2="3.937" y2="0" style="stroke-width:0.394; stroke:black; stroke-dasharray:none;" />
    </pattern>
    <pattern id="revside-fill-silver" x="1" y="1" width="3.937" height="3.937" patternUnits="userSpaceOnUse">
      <line x1="0" y1="0" x2="3.937" y2="3.937" style="stroke-width:0.394; stroke:#e0e0e0; stroke-dasharray:none;" />
      <line x1="0" y1="3.937" x2="3.937" y2="0" style="stroke-width:0.394; stroke:#e0e0e0; stroke-dasharray:none;" />
    </pattern>
  </defs>
<g transform="scale(1,-1) translate( -0.000, -177.800)" 
   fill-rule="evenodd"
   style="stroke-linecap:round; stroke-linejoin:round; stroke-opacity:1.0; stroke-opacity:1.0;">
<path d="
M393.700 177.800
L393.700 0.000
L0.000 0.000
L0.000 177.800
L393.700 177.800
" 
fill="#c0c0c0" vector-effect="non-scaling-stroke" stroke="#000000" stroke-width="0.100mm" fpd:visible="front back" />
<path d="
M7.138 168.278
A2.387,2.387 0 1,0 11.912,168.278
A2.387,2.387 0 1,0 7.138,168.278
" 
fill="#ffffff" vector-effect="non-scaling-stroke" stroke="#000000" stroke-width="0.100mm" fpd:visible="front back" fpd:print_element="0" />
<path d="
M381.788 168.275
A2.387,2.387 0 1,0 386.562,168.275
A2.387,2.387 0 1,0 381.788,168.275
" 
fill="#ffffff" vector-effect="non-scaling-stroke" stroke="#000000" stroke-width="0.100mm" fpd:visible="front back" fpd:print_element="0" />
<path d="
M2.388 19.050
A2.387,2.387 0 1,0 7.162,19.050
A2.387,2.387 0 1,0 2.388,19.050
" 
fill="#ffffff" vector-effect="non-scaling-stroke" stroke="#000000" stroke-width="0.100mm" fpd:visible="front back" fpd:print_element="0" />
<path d="
M386.538 19.050
A2.387,2.387 0 1,0 391.312,19.050
A2.387,2.387 0 1,0 386.538,19.050
" 
fill="#ffffff" vector-effect="non-scaling-stroke" stroke="#000000" stroke-width="0.100mm" fpd:visible="front back" fpd:print_element="0" />
<path d="
M22.543 152.400
A1.587,1.587 0 1,0 25.717,152.400
A1.587,1.587 0 1,0 22.543,152.400
" 
fill="#ffffff" vector-effect="non-scaling-stroke" stroke="#000000" stroke-width="0.100mm" fpd:visible="front back" fpd:print_element="0" />
<path d="
M195.263 152.400
A1.587,1.587 0 1,0 198.437,152.400
A1.587,1.587 0 1,0 195.263,152.400
" 
fill="#ffffff" vector-effect="non-scaling-stroke" stroke="#000000" stroke-width="0.100mm" fpd:visible="front back" fpd:print_element="0" />
<path d="
M367.983 152.400
A1.587,1.587 0 1,0 371.157,152.400
A1.587,1.587 0 1,0 367.983,152.400
" 
fill="#ffffff" vector-effect="non-scaling-stroke" stroke="#000000" stroke-width="0.100mm" fpd:visible="front back" fpd:print_element="0" />
<path d="
M22.543 6.350
A1.587,1.587 0 1,0 25.717,6.350
A1.587,1.587 0 1,0 22.543,6.350
" 
fill="#ffffff" vector-effect="non-scaling-stroke" stroke="#000000" stroke-width="0.100mm" fpd:visible="front back" fpd:print_element="0" />
<path d="
M195.263 6.350
A1.587,1.587 0 1,0 198.437,6.350
A1.587,1.587 0 1,0 195.263,6.350
" 
fill="#ffffff" vector-effect="non-scaling-stroke" stroke="#000000" stroke-width="0.100mm" fpd:visible="front back" fpd:print_element="0" />
<path d="
M367.983 6.350
A1.587,1.587 0 1,0 371.157,6.350
A1.587,1.587 0 1,0 367.983,6.350
" 
fill="#ffffff" vector-effect="non-scaling-stroke" stroke="#000000" stroke-width="0.100mm" fpd:visible="front back" fpd:print_element="0" />
<path d="
M344.488 130.175
A4.762,4.762 0 1,0 354.012,130.175
A4.762,4.762 0 1,0 344.488,130.175
" 
fill="#ffffff" vector-effect="non-scaling-stroke" stroke="#000000" stroke-width="0.100mm" fpd:visible="front back" fpd:print_element="0" />
<path d="
M293.815 130.400
A4.762,4.762 0 1,0 303.339,130.400
A4.762,4.762 0 1,0 293.815,130.400
" 
fill="#ffffff" vector-effect="non-scaling-stroke" stroke="#000000" stroke-width="0.100mm" fpd:visible="front back" fpd:print_element="0" />
<path d="
M242.888 130.175
A4.762,4.762 0 1,0 252.412,130.175
A4.762,4.762 0 1,0 242.888,130.175
" 
fill="#ffffff" vector-effect="non-scaling-stroke" stroke="#000000" stroke-width="0.100mm" fpd:visible="front back" fpd:print_element="0" />
<path d="
M192.215 130.400
A4.762,4.762 0 1,0 201.739,130.400
A4.762,4.762 0 1,0 192.215,130.400
" 
fill="#ffffff" vector-effect="non-scaling-stroke" stroke="#000000" stroke-width="0.100mm" fpd:visible="front back" fpd:print_element="0" />
<path d="
M141.288 130.175
A4.762,4.762 0 1,0 150.812,130.175
A4.762,4.762 0 1,0 141.288,130.175
" 
fill="#ffffff" vector-effect="non-scaling-stroke" stroke="#000000" stroke-width="0.100mm" fpd:visible="front back" fpd:print_element="0" />
<path d="
M90.615 130.400
A4.762,4.762 0 1,0 100.139,130.400
A4.762,4.762 0 1,0 90.615,130.400
" 
fill="#ffffff" vector-effect="non-scaling-stroke" stroke="#000000" stroke-width="0.100mm" fpd:visible="front back" fpd:print_element="0" />
<path d="
M141.288 79.375
A4.762,4.762 0 1,0 150.812,79.375
A4.762,4.762 0 1,0 141.288,79.375
" 
fill="#ffffff" vector-effect="non-scaling-stroke" stroke="#000000" stroke-width="0.100mm" fpd:visible="front back" fpd:print_element="0" />
<path d="
M90.615 79.600
A4.762,4.762 0 1,0 100.139,79.600
A4.762,4.762 0 1,0 90.615,79.600
" 
fill="#ffffff" vector-effect="non-scaling-stroke" stroke="#000000" stroke-width="0.100mm" fpd:visible="front back" fpd:print_element="0" />
<path d="
M242.888 79.375
A4.762,4.762 0 1,0 252.412,79.375
A4.762,4.762 0 1,0 242.888,79.375
" 
fill="#ffffff" vector-effect="non-scaling-stroke" stroke="#000000" stroke-width="0.100mm" fpd:visible="front back" fpd:print_element="0" />
<path d="
M192.215 79.600
A4.762,4.762 0 1,0 201.739,79.600
A4.762,4.762 0 1,0 192.215,79.600
" 
fill="#ffffff" vector-effect="non-scaling-stroke" stroke="#000000" stroke-width="0.100mm" fpd:visible="front back" fpd:print_element="0" />
<path d="
M344.488 79.375
A4.762,4.762 0 1,0 354.012,79.375
A4.762,4.762 0 1,0 344.488,79.375
" 
fill="#ffffff" vector-effect="non-scaling-stroke" stroke="#000000" stroke-width="0.100mm" fpd:visible="front back" fpd:print_element="0" />
<path d="
M293.815 79.600
A4.762,4.762 0 1,0 303.339,79.600
A4.762,4.762 0 1,0 293.815,79.600
" 
fill="#ffffff" vector-effect="non-scaling-stroke" stroke="#000000" stroke-width="0.100mm" fpd:visible="front back" fpd:print_element="0" />
<path d="
M39.815 79.600
A4.762,4.762 0 1,0 49.339,79.600
A4.762,4.762 0 1,0 39.815,79.600
" 
fill="#ffffff" vector-effect="non-scaling-stroke" stroke="#000000" stroke-width="0.100mm" fpd:visible="front back" fpd:print_element="0" />
<path d="
M39.815 130.400
A4.762,4.762 0 1,0 49.339,130.400
A4.762,4.762 0 1,0 39.815,130.400
" 
fill="#ffffff" vector-effect="non-scaling-stroke" stroke="#000000" stroke-width="0.100mm" fpd:visible="front back" fpd:print_element="0" />
<path d="
M34.443 41.275
A2.387,2.387 0 1,0 39.217,41.275
A2.387,2.387 0 1,0 34.443,41.275
" 
fill="#ffffff" vector-effect="non-scaling-stroke" stroke="#000000" stroke-width="0.100mm" fpd:visible="front back" fpd:print_element="0" />
<path d="
M29.330 16.050
A0.500,0.500 0 0,1 29.830,15.550
L43.830 15.550
A0.500,0.500 0 0,1 44.330,16.050
L44.330 22.050
A0.500,0.500 0 0,1 43.830,22.550
L29.830 22.550
A0.500,0.500 0 0,1 29.330,22.050
L29.330 16.050
" 
fill="#ffffff" vector-effect="non-scaling-stroke" stroke="#000000" stroke-width="0.100mm" fpd:visible="front back" fpd:print_element="0" />
<path d="
M64.890 16.050
A0.500,0.500 0 0,1 65.390,15.550
L79.390 15.550
A0.500,0.500 0 0,1 79.890,16.050
L79.890 22.050
A0.500,0.500 0 0,1 79.390,22.550
L65.390 22.550
A0.500,0.500 0 0,1 64.890,22.050
L64.890 16.050
" 
fill="#ffffff" vector-effect="non-scaling-stroke" stroke="#000000" stroke-width="0.100mm" fpd:visible="front back" fpd:print_element="0" />
<path d="
M64.890 38.275
A0.500,0.500 0 0,1 65.390,37.775
L79.390 37.775
A0.500,0.500 0 0,1 79.890,38.275
L79.890 44.275
A0.500,0.500 0 0,1 79.390,44.775
L65.390 44.775
A0.500,0.500 0 0,1 64.890,44.275
L64.890 38.275
" 
fill="#ffffff" vector-effect="non-scaling-stroke" stroke="#000000" stroke-width="0.100mm" fpd:visible="front back" fpd:print_element="0" />
<path d="
M100.450 16.050
A0.500,0.500 0 0,1 100.950,15.550
L114.950 15.550
A0.500,0.500 0 0,1 115.450,16.050
L115.450 22.050
A0.500,0.500 0 0,1 114.950,22.550
L100.950 22.550
A0.500,0.500 0 0,1 100.450,22.050
L100.450 16.050
" 
fill="#ffffff" vector-effect="non-scaling-stroke" stroke="#000000" stroke-width="0.100mm" fpd:visible="front back" fpd:print_element="0" />
<path d="
M100.450 38.275
A0.500,0.500 0 0,1 100.950,37.775
L114.950 37.775
A0.500,0.500 0 0,1 115.450,38.275
L115.450 44.275
A0.500,0.500 0 0,1 114.950,44.775
L100.950 44.775
A0.500,0.500 0 0,1 100.450,44.275
L100.450 38.275
" 
fill="#ffffff" vector-effect="non-scaling-stroke" stroke="#000000" stroke-width="0.100mm" fpd:visible="front back" fpd:print_element="0" />
<path d="
M137.510 16.050
A0.500,0.500 0 0,1 138.010,15.550
L149.010 15.550
A0.500,0.500 0 0,1 149.510,16.050
L149.510 22.050
A0.500,0.500 0 0,1 149.010,22.550
L138.010 22.550
A0.500,0.500 0 0,1 137.510,22.050
L137.510 16.050
" 
fill="#ffffff" vector-effect="non-scaling-stroke" stroke="#000000" stroke-width="0.100mm" fpd:visible="front back" fpd:print_element="0" />
<path d="
M137.510 38.275
A0.500,0.500 0 0,1 138.010,37.775
L149.010 37.775
A0.500,0.500 0 0,1 149.510,38.275
L149.510 44.275
A0.500,0.500 0 0,1 149.010,44.775
L138.010 44.775
A0.500,0.500 0 0,1 137.510,44.275
L137.510 38.275
" 
fill="#ffffff" vector-effect="non-scaling-stroke" stroke="#000000" stroke-width="0.100mm" fpd:visible="front back" fpd:print_element="0" />
<path d="
M173.070 16.050
A0.500,0.500 0 0,1 173.570,15.550
L184.570 15.550
A0.500,0.500 0 0,1 185.070,16.050
L185.070 22.050
A0.500,0.500 0 0,1 184.570,22.550
L173.570 22.550
A0.500,0.500 0 0,1 173.070,22.050
L173.070 16.050
" 
fill="#ffffff" vector-effect="non-scaling-stroke" stroke="#000000" stroke-width="0.100mm" fpd:visible="front back" fpd:print_element="0" />
<path d="
M171.570 38.275
A0.500,0.500 0 0,1 172.070,37.775
L186.070 37.775
A0.500,0.500 0 0,1 186.570,38.275
L186.570 44.275
A0.500,0.500 0 0,1 186.070,44.775
L172.070 44.775
A0.500,0.500 0 0,1 171.570,44.275
L171.570 38.275
" 
fill="#ffffff" vector-effect="non-scaling-stroke" stroke="#000000" stroke-width="0.100mm" fpd:visible="front back" fpd:print_element="0" />
<path d="
M208.630 16.050
A0.500,0.500 0 0,1 209.130,15.550
L220.130 15.550
A0.500,0.500 0 0,1 220.630,16.050
L220.630 22.050
A0.500,0.500 0 0,1 220.130,22.550
L209.130 22.550
A0.500,0.500 0 0,1 208.630,22.050
L208.630 16.050
" 
fill="#ffffff" vector-effect="non-scaling-stroke" stroke="#000000" stroke-width="0.100mm" fpd:visible="front back" fpd:print_element="0" />
<path d="
M208.630 38.275
A0.500,0.500 0 0,1 209.130,37.775
L220.130 37.775
A0.500,0.500 0 0,1 220.630,38.275
L220.630 44.275
A0.500,0.500 0 0,1 220.130,44.775
L209.130 44.775
A0.500,0.500 0 0,1 208.630,44.275
L208.630 38.275
" 
fill="#ffffff" vector-effect="non-scaling-stroke" stroke="#000000" stroke-width="0.100mm" fpd:visible="front back" fpd:print_element="0" />
<path d="
M244.190 16.050
A0.500,0.500 0 0,1 244.690,15.550
L255.690 15.550
A0.500,0.500 0 0,1 256.190,16.050
L256.190 22.050
A0.500,0.500 0 0,1 255.690,22.550
L244.690 22.550
A0.500,0.500 0 0,1 244.190,22.050
L244.190 16.050
" 
fill="#ffffff" vector-effect="non-scaling-stroke" stroke="#000000" stroke-width="0.100mm" fpd:visible="front back" fpd:print_element="0" />
<path d="
M242.690 38.275
A0.500,0.500 0 0,1 243.190,37.775
L257.190 37.775
A0.500,0.500 0 0,1 257.690,38.275
L257.690 44.275
A0.500,0.500 0 0,1 257.190,44.775
L243.190 44.775
A0.500,0.500 0 0,1 242.690,44.275
L242.690 38.275
" 
fill="#ffffff" vector-effect="non-scaling-stroke" stroke="#000000" stroke-width="0.100mm" fpd:visible="front back" fpd:print_element="0" />
<path d="
M279.750 16.050
A0.500,0.500 0 0,1 280.250,15.550
L291.250 15.550
A0.500,0.500 0 0,1 291.750,16.050
L291.750 22.050
A0.500,0.500 0 0,1 291.250,22.550
L280.250 22.550
A0.500,0.500 0 0,1 279.750,22.050
L279.750 16.050
" 
fill="#ffffff" vector-effect="non-scaling-stroke" stroke="#000000" stroke-width="0.100mm" fpd:visible="front back" fpd:print_element="0" />
<path d="
M278.250 38.275
A0.500,0.500 0 0,1 278.750,37.775
L292.750 37.775
A0.500,0.500 0 0,1 293.250,38.275
L293.250 44.275
A0.500,0.500 0 0,1 292.750,44.775
L278.750 44.775
A0.500,0.500 0 0,1 278.250,44.275
L278.250 38.275
" 
fill="#ffffff" vector-effect="non-scaling-stroke" stroke="#000000" stroke-width="0.100mm" fpd:visible="front back" fpd:print_element="0" />
<path d="
M315.310 16.050
A0.500,0.500 0 0,1 315.810,15.550
L326.810 15.550
A0.500,0.500 0 0,1 327.310,16.050
L327.310 22.050
A0.500,0.500 0 0,1 326.810,22.550
L315.810 22.550
A0.500,0.500 0 0,1 315.310,22.050
L315.310 16.050
" 
fill="#ffffff" vector-effect="non-scaling-stroke" stroke="#000000" stroke-width="0.100mm" fpd:visible="front back" fpd:print_element="0" />
<path d="
M315.310 38.275
A0.500,0.500 0 0,1 315.810,37.775
L326.810 37.775
A0.500,0.500 0 0,1 327.310,38.275
L327.310 44.275
A0.500,0.500 0 0,1 326.810,44.775
L315.810 44.775
A0.500,0.500 0 0,1 315.310,44.275
L315.310 38.275
" 
fill="#ffffff" vector-effect="non-scaling-stroke" stroke="#000000" stroke-width="0.100mm" fpd:visible="front back" fpd:print_element="0" />
<path d="
M350.870 16.050
A0.500,0.500 0 0,1 351.370,15.550
L362.370 15.550
A0.500,0.500 0 0,1 362.870,16.050
L362.870 22.050
A0.500,0.500 0 0,1 362.370,22.550
L351.370 22.550
A0.500,0.500 0 0,1 350.870,22.050
L350.870 16.050
" 
fill="#ffffff" vector-effect="non-scaling-stroke" stroke="#000000" stroke-width="0.100mm" fpd:visible="front back" fpd:print_element="0" />
<path d="
M350.870 38.275
A0.500,0.500 0 0,1 351.370,37.775
L362.370 37.775
A0.500,0.500 0 0,1 362.870,38.275
L362.870 44.275
A0.500,0.500 0 0,1 362.370,44.775
L351.370 44.775
A0.500,0.500 0 0,1 350.870,44.275
L350.870 38.275
" 
fill="#ffffff" vector-effect="non-scaling-stroke" stroke="#000000" stroke-width="0.100mm" fpd:visible="front back" fpd:print_element="0" />
<path d="
M126.670 143.390
A3.000,3.000 0 1,0 132.670,143.390
A3.000,3.000 0 1,0 126.670,143.390
" 
fill="#ffffff" vector-effect="non-scaling-stroke" stroke="#000000" stroke-width="0.100mm" fpd:visible="front back" fpd:print_element="0" />
<path d="
M393.700 177.800
L393.700 0.000
L0.000 0.000
L0.000 177.800
L393.700 177.800
" 
fill="none" vector-effect="non-scaling-stroke" stroke="#000000" stroke-width="0.100mm" fpd:visible="front back" />
<path d="
M-0.918 0.000
L0.918 0.000
M0.000 -0.918
L0.000 0.918
" 
fill="none" vector-effect="non-scaling-stroke" stroke="#ff0000" stroke-width="0.100mm" />
<path d="
M8.607 168.278
L10.443 168.278
M9.525 167.360
L9.525 169.196
" 
fill="none" vector-effect="non-scaling-stroke" stroke="#ff0000" stroke-width="0.100mm" />
<path d="
M383.257 168.275
L385.093 168.275
M384.175 167.357
L384.175 169.193
" 
fill="none" vector-effect="non-scaling-stroke" stroke="#ff0000" stroke-width="0.100mm" />
<path d="
M3.857 19.050
L5.693 19.050
M4.775 18.132
L4.775 19.968
" 
fill="none" vector-effect="non-scaling-stroke" stroke="#ff0000" stroke-width="0.100mm" />
<path d="
M388.007 19.050
L389.843 19.050
M388.925 18.132
L388.925 19.968
" 
fill="none" vector-effect="non-scaling-stroke" stroke="#ff0000" stroke-width="0.100mm" />
<path d="
M23.212 152.400
L25.048 152.400
M24.130 151.482
L24.130 153.318
" 
fill="none" vector-effect="non-scaling-stroke" stroke="#ff0000" stroke-width="0.100mm" />
<path d="
M195.932 152.400
L197.768 152.400
M196.850 151.482
L196.850 153.318
" 
fill="none" vector-effect="non-scaling-stroke" stroke="#ff0000" stroke-width="0.100mm" />
<path d="
M368.652 152.400
L370.488 152.400
M369.570 151.482
L369.570 153.318
" 
fill="none" vector-effect="non-scaling-stroke" stroke="#ff0000" stroke-width="0.100mm" />
<path d="
M23.212 6.350
L25.048 6.350
M24.130 5.432
L24.130 7.268
" 
fill="none" vector-effect="non-scaling-stroke" stroke="#ff0000" stroke-width="0.100mm" />
<path d="
M195.932 6.350
L197.768 6.350
M196.850 5.432
L196.850 7.268
" 
fill="none" vector-effect="non-scaling-stroke" stroke="#ff0000" stroke-width="0.100mm" />
<path d="
M368.652 6.350
L370.488 6.350
M369.570 5.432
L369.570 7.268
" 
fill="none" vector-effect="non-scaling-stroke" stroke="#ff0000" stroke-width="0.100mm" />
<path d="
M348.332 130.175
L350.168 130.175
M349.250 129.257
L349.250 131.093
" 
fill="none" vector-effect="non-scaling-stroke" stroke="#ff0000" stroke-width="0.100mm" />
<path d="
M297.659 130.400
L299.495 130.400
M298.577 129.482
L298.577 131.318
" 
fill="none" vector-effect="non-scaling-stroke" stroke="#ff0000" stroke-width="0.100mm" />
<path d="
M246.732 130.175
L248.568 130.175
M247.650 129.257
L247.650 131.093
" 
fill="none" vector-effect="non-scaling-stroke" stroke="#ff0000" stroke-width="0.100mm" />
<path d="
M196.059 130.400
L197.895 130.400
M196.977 129.482
L196.977 131.318
" 
fill="none" vector-effect="non-scaling-stroke" stroke="#ff0000" stroke-width="0.100mm" />
<path d="
M145.132 130.175
L146.968 130.175
M146.050 129.257
L146.050 131.093
" 
fill="none" vector-effect="non-scaling-stroke" stroke="#ff0000" stroke-width="0.100mm" />
<path d="
M94.459 130.400
L96.295 130.400
M95.377 129.482
L95.377 131.318
" 
fill="none" vector-effect="non-scaling-stroke" stroke="#ff0000" stroke-width="0.100mm" />
<path d="
M145.132 79.375
L146.968 79.375
M146.050 78.457
L146.050 80.293
" 
fill="none" vector-effect="non-scaling-stroke" stroke="#ff0000" stroke-width="0.100mm" />
<path d="
M94.459 79.600
L96.295 79.600
M95.377 78.682
L95.377 80.518
" 
fill="none" vector-effect="non-scaling-stroke" stroke="#ff0000" stroke-width="0.100mm" />
<path d="
M246.732 79.375
L248.568 79.375
M247.650 78.457
L247.650 80.293
" 
fill="none" vector-effect="non-scaling-stroke" stroke="#ff0000" stroke-width="0.100mm" />
<path d="
M196.059 79.600
L197.895 79.600
M196.977 78.682
L196.977 80.518
" 
fill="none" vector-effect="non-scaling-stroke" stroke="#ff0000" stroke-width="0.100mm" />
<path d="
M348.332 79.375
L350.168 79.375
M349.250 78.457
L349.250 80.293
" 
fill="none" vector-effect="non-scaling-stroke" stroke="#ff0000" stroke-width="0.100mm" />
<path d="
M297.659 79.600
L299.495 79.600
M298.577 78.682
L298.577 80.518
" 
fill="none" vector-effect="non-scaling-stroke" stroke="#ff0000" stroke-width="0.100mm" />
<path d="
M43.659 79.600
L45.495 79.600
M44.577 78.682
L44.577 80.518
" 
fill="none" vector-effect="non-scaling-stroke" stroke="#ff0000" stroke-width="0.100mm" />
<path d="
M43.659 130.400
L45.495 130.400
M44.577 129.482
L44.577 131.318
" 
fill="none" vector-effect="non-scaling-stroke" stroke="#ff0000" stroke-width="0.100mm" />
<path d="
M35.912 41.275
L37.748 41.275
M36.830 40.357
L36.830 42.193
" 
fill="none" vector-effect="non-scaling-stroke" stroke="#ff0000" stroke-width="0.100mm" />
<path d="
M35.912 19.050
L37.748 19.050
M36.830 18.132
L36.830 19.968
" 
fill="none" vector-effect="non-scaling-stroke" stroke="#ff0000" stroke-width="0.100mm" />
<path d="
M71.472 19.050
L73.308 19.050
M72.390 18.132
L72.390 19.968
" 
fill="none" vector-effect="non-scaling-stroke" stroke="#ff0000" stroke-width="0.100mm" />
<path d="
M71.472 41.275
L73.308 41.275
M72.390 40.357
L72.390 42.193
" 
fill="none" vector-effect="non-scaling-stroke" stroke="#ff0000" stroke-width="0.100mm" />
<path d="
M107.032 19.050
L108.868 19.050
M107.950 18.132
L107.950 19.968
" 
fill="none" vector-effect="non-scaling-stroke" stroke="#ff0000" stroke-width="0.100mm" />
<path d="
M107.032 41.275
L108.868 41.275
M107.950 40.357
L107.950 42.193
" 
fill="none" vector-effect="non-scaling-stroke" stroke="#ff0000" stroke-width="0.100mm" />
<path d="
M142.592 19.050
L144.428 19.050
M143.510 18.132
L143.510 19.968
" 
fill="none" vector-effect="non-scaling-stroke" stroke="#ff0000" stroke-width="0.100mm" />
<path d="
M142.592 41.275
L144.428 41.275
M143.510 40.357
L143.510 42.193
" 
fill="none" vector-effect="non-scaling-stroke" stroke="#ff0000" stroke-width="0.100mm" />
<path d="
M178.152 19.050
L179.988 19.050
M179.070 18.132
L179.070 19.968
" 
fill="none" vector-effect="non-scaling-stroke" stroke="#ff0000" stroke-width="0.100mm" />
<path d="
M178.152 41.275
L179.988 41.275
M179.070 40.357
L179.070 42.193
" 
fill="none" vector-effect="non-scaling-stroke" stroke="#ff0000" stroke-width="0.100mm" />
<path d="
M213.712 19.050
L215.548 19.050
M214.630 18.132
L214.630 19.968
" 
fill="none" vector-effect="non-scaling-stroke" stroke="#ff0000" stroke-width="0.100mm" />
<path d="
M213.712 41.275
L215.548 41.275
M214.630 40.357
L214.630 42.193
" 
fill="none" vector-effect="non-scaling-stroke" stroke="#ff0000" stroke-width="0.100mm" />
<path d="
M249.272 19.050
L251.108 19.050
M250.190 18.132
L250.190 19.968
" 
fill="none" vector-effect="non-scaling-stroke" stroke="#ff0000" stroke-width="0.100mm" />
<path d="
M249.272 41.275
L251.108 41.275
M250.190 40.357
L250.190 42.193
" 
fill="none" vector-effect="non-scaling-stroke" stroke="#ff0000" stroke-width="0.100mm" />
<path d="
M284.832 19.050
L286.668 19.050
M285.750 18.132
L285.750 19.968
" 
fill="none" vector-effect="non-scaling-stroke" stroke="#ff0000" stroke-width="0.100mm" />
<path d="
M284.832 41.275
L286.668 41.275
M285.750 40.357
L285.750 42.193
" 
fill="none" vector-effect="non-scaling-stroke" stroke="#ff0000" stroke-width="0.100mm" />
<path d="
M320.392 19.050
L322.228 19.050
M321.310 18.132
L321.310 19.968
" 
fill="none" vector-effect="non-scaling-stroke" stroke="#ff0000" stroke-width="0.100mm" />
<path d="
M320.392 41.275
L322.228 41.275
M321.310 40.357
L321.310 42.193
" 
fill="none" vector-effect="non-scaling-stroke" stroke="#ff0000" stroke-width="0.100mm" />
<path d="
M355.952 19.050
L357.788 19.050
M356.870 18.132
L356.870 19.968
" 
fill="none" vector-effect="non-scaling-stroke" stroke="#ff0000" stroke-width="0.100mm" />
<path d="
M355.952 41.275
L357.788 41.275
M356.870 40.357
L356.870 42.193
" 
fill="none" vector-effect="non-scaling-stroke" stroke="#ff0000" stroke-width="0.100mm" />
<path d="
M128.752 143.390
L130.588 143.390
M129.670 142.472
L129.670 144.308
" 
fill="none" vector-effect="non-scaling-stroke" stroke="#ff0000" stroke-width="0.100mm" />
</g>
</svg>
