  0
SECTION
  2
HEADER
  9
$MEASUREMENT
  70
  1
  9
$INSUNITS
  70
  4
  0
ENDSEC
  0
SECTION
  2
TABLES
  0
TABLE
  2
LTYPE
 70
     1
  0
LTYPE
  2
CONTINUOUS
 70
    64
  3
Ausgezogene Linie
 72
    65
 73
     0
 40
0.0
  0
ENDTAB
  0
TABLE
  2
LAYER
 70
     3
  0
LAYER
  2
Contour
 70
    64
 62
     7
  6
CONTINUOUS
  0
LAYER
  2
Engraving
 70
    64
 62
     7
  6
CONTINUOUS
  0
LAYER
  2
Reference_points
 70
    64
 62
     1
  6
CONTINUOUS
  0
ENDTAB
  0
TABLE
  2
STYLE
 70
     1
  0
STYLE
  2
TXT
 70
    64
 40
0.0
 41
1.0
 50
0.0
 71
     0
 42
3.500000
  3
TXT
  0
ENDTAB
  0
ENDSEC
  0
SECTION
  2
BLOCKS
  0
ENDSEC
  0
SECTION
  2
ENTITIES
  0
LINE
  8
Contour
 62
   7
 39
0.100
  6
CONTINUOUS
 10
393.70000
 20
177.80000
 30
 0
 11
393.70000
 21
0.00000
  0
LINE
  8
Contour
 62
   7
 39
0.100
  6
CONTINUOUS
 10
393.70000
 20
0.00000
 30
 0
 11
0.00000
 21
0.00000
  0
LINE
  8
Contour
 62
   7
 39
0.100
  6
CONTINUOUS
 10
0.00000
 20
0.00000
 30
 0
 11
0.00000
 21
177.80000
  0
LINE
  8
Contour
 62
   7
 39
0.100
  6
CONTINUOUS
 10
0.00000
 20
177.80000
 30
 0
 11
393.70000
 21
177.80000
  0
CIRCLE
  8
Contour
 62
   7
 39
0.100
  6
CONTINUOUS
 10
9.52500
 20
168.27800
 30
 0
 40
2.38700
  0
CIRCLE
  8
Contour
 62
   7
 39
0.100
  6
CONTINUOUS
 10
384.17500
 20
168.27500
 30
 0
 40
2.38700
  0
CIRCLE
  8
Contour
 62
   7
 39
0.100
  6
CONTINUOUS
 10
4.77500
 20
19.05000
 30
 0
 40
2.38700
  0
CIRCLE
  8
Contour
 62
   7
 39
0.100
  6
CONTINUOUS
 10
388.92500
 20
19.05000
 30
 0
 40
2.38700
  0
CIRCLE
  8
Contour
 62
   7
 39
0.100
  6
CONTINUOUS
 10
24.13000
 20
152.40000
 30
 0
 40
1.58700
  0
CIRCLE
  8
Contour
 62
   7
 39
0.100
  6
CONTINUOUS
 10
196.85000
 20
152.40000
 30
 0
 40
1.58700
  0
CIRCLE
  8
Contour
 62
   7
 39
0.100
  6
CONTINUOUS
 10
369.57000
 20
152.40000
 30
 0
 40
1.58700
  0
CIRCLE
  8
Contour
 62
   7
 39
0.100
  6
CONTINUOUS
 10
24.13000
 20
6.35000
 30
 0
 40
1.58700
  0
CIRCLE
  8
Contour
 62
   7
 39
0.100
  6
CONTINUOUS
 10
196.85000
 20
6.35000
 30
 0
 40
1.58700
  0
CIRCLE
  8
Contour
 62
   7
 39
0.100
  6
CONTINUOUS
 10
369.57000
 20
6.35000
 30
 0
 40
1.58700
  0
CIRCLE
  8
Contour
 62
   7
 39
0.100
  6
CONTINUOUS
 10
349.25000
 20
130.17500
 30
 0
 40
4.76200
  0
CIRCLE
  8
Contour
 62
   7
 39
0.100
  6
CONTINUOUS
 10
298.57700
 20
130.40000
 30
 0
 40
4.76200
  0
CIRCLE
  8
Contour
 62
   7
 39
0.100
  6
CONTINUOUS
 10
247.65000
 20
130.17500
 30
 0
 40
4.76200
  0
CIRCLE
  8
Contour
 62
   7
 39
0.100
  6
CONTINUOUS
 10
196.97700
 20
130.40000
 30
 0
 40
4.76200
  0
CIRCLE
  8
Contour
 62
   7
 39
0.100
  6
CONTINUOUS
 10
146.05000
 20
130.17500
 30
 0
 40
4.76200
  0
CIRCLE
  8
Contour
 62
   7
 39
0.100
  6
CONTINUOUS
 10
95.37700
 20
130.40000
 30
 0
 40
4.76200
  0
CIRCLE
  8
Contour
 62
   7
 39
0.100
  6
CONTINUOUS
 10
146.05000
 20
79.37500
 30
 0
 40
4.76200
  0
CIRCLE
  8
Contour
 62
   7
 39
0.100
  6
CONTINUOUS
 10
95.37700
 20
79.60000
 30
 0
 40
4.76200
  0
CIRCLE
  8
Contour
 62
   7
 39
0.100
  6
CONTINUOUS
 10
247.65000
 20
79.37500
 30
 0
 40
4.76200
  0
CIRCLE
  8
Contour
 62
   7
 39
0.100
  6
CONTINUOUS
 10
196.97700
 20
79.60000
 30
 0
 40
4.76200
  0
CIRCLE
  8
Contour
 62
   7
 39
0.100
  6
CONTINUOUS
 10
349.25000
 20
79.37500
 30
 0
 40
4.76200
  0
CIRCLE
  8
Contour
 62
   7
 39
0.100
  6
CONTINUOUS
 10
298.57700
 20
79.60000
 30
 0
 40
4.76200
  0
CIRCLE
  8
Contour
 62
   7
 39
0.100
  6
CONTINUOUS
 10
44.57700
 20
79.60000
 30
 0
 40
4.76200
  0
CIRCLE
  8
Contour
 62
   7
 39
0.100
  6
CONTINUOUS
 10
44.57700
 20
130.40000
 30
 0
 40
4.76200
  0
CIRCLE
  8
Contour
 62
   7
 39
0.100
  6
CONTINUOUS
 10
36.83000
 20
41.27500
 30
 0
 40
2.38700
  0
ARC
  8
Contour
 62
   7
 39
0.100
  6
CONTINUOUS
 10
29.83000
 20
16.05000
 30
 0
 40
0.50000
 50
180.00000
 51
270.00000
  0
LINE
  8
Contour
 62
   7
 39
0.100
  6
CONTINUOUS
 10
29.83000
 20
15.55000
 30
 0
 11
43.83000
 21
15.55000
  0
ARC
  8
Contour
 62
   7
 39
0.100
  6
CONTINUOUS
 10
43.83000
 20
16.05000
 30
 0
 40
0.50000
 50
270.00000
 51
360.00000
  0
LINE
  8
Contour
 62
   7
 39
0.100
  6
CONTINUOUS
 10
44.33000
 20
16.05000
 30
 0
 11
44.33000
 21
22.05000
  0
ARC
  8
Contour
 62
   7
 39
0.100
  6
CONTINUOUS
 10
43.83000
 20
22.05000
 30
 0
 40
0.50000
 50
0.00000
 51
90.00000
  0
LINE
  8
Contour
 62
   7
 39
0.100
  6
CONTINUOUS
 10
43.83000
 20
22.55000
 30
 0
 11
29.83000
 21
22.55000
  0
ARC
  8
Contour
 62
   7
 39
0.100
  6
CONTINUOUS
 10
29.83000
 20
22.05000
 30
 0
 40
0.50000
 50
90.00000
 51
180.00000
  0
LINE
  8
Contour
 62
   7
 39
0.100
  6
CONTINUOUS
 10
29.33000
 20
22.05000
 30
 0
 11
29.33000
 21
16.05000
  0
ARC
  8
Contour
 62
   7
 39
0.100
  6
CONTINUOUS
 10
65.39000
 20
16.05000
 30
 0
 40
0.50000
 50
180.00000
 51
270.00000
  0
LINE
  8
Contour
 62
   7
 39
0.100
  6
CONTINUOUS
 10
65.39000
 20
15.55000
 30
 0
 11
79.39000
 21
15.55000
  0
ARC
  8
Contour
 62
   7
 39
0.100
  6
CONTINUOUS
 10
79.39000
 20
16.05000
 30
 0
 40
0.50000
 50
270.00000
 51
360.00000
  0
LINE
  8
Contour
 62
   7
 39
0.100
  6
CONTINUOUS
 10
79.89000
 20
16.05000
 30
 0
 11
79.89000
 21
22.05000
  0
ARC
  8
Contour
 62
   7
 39
0.100
  6
CONTINUOUS
 10
79.39000
 20
22.05000
 30
 0
 40
0.50000
 50
0.00000
 51
90.00000
  0
LINE
  8
Contour
 62
   7
 39
0.100
  6
CONTINUOUS
 10
79.39000
 20
22.55000
 30
 0
 11
65.39000
 21
22.55000
  0
ARC
  8
Contour
 62
   7
 39
0.100
  6
CONTINUOUS
 10
65.39000
 20
22.05000
 30
 0
 40
0.50000
 50
90.00000
 51
180.00000
  0
LINE
  8
Contour
 62
   7
 39
0.100
  6
CONTINUOUS
 10
64.89000
 20
22.05000
 30
 0
 11
64.89000
 21
16.05000
  0
ARC
  8
Contour
 62
   7
 39
0.100
  6
CONTINUOUS
 10
65.39000
 20
38.27500
 30
 0
 40
0.50000
 50
180.00000
 51
270.00000
  0
LINE
  8
Contour
 62
   7
 39
0.100
  6
CONTINUOUS
 10
65.39000
 20
37.77500
 30
 0
 11
79.39000
 21
37.77500
  0
ARC
  8
Contour
 62
   7
 39
0.100
  6
CONTINUOUS
 10
79.39000
 20
38.27500
 30
 0
 40
0.50000
 50
270.00000
 51
360.00000
  0
LINE
  8
Contour
 62
   7
 39
0.100
  6
CONTINUOUS
 10
79.89000
 20
38.27500
 30
 0
 11
79.89000
 21
44.27500
  0
ARC
  8
Contour
 62
   7
 39
0.100
  6
CONTINUOUS
 10
79.39000
 20
44.27500
 30
 0
 40
0.50000
 50
0.00000
 51
90.00000
  0
LINE
  8
Contour
 62
   7
 39
0.100
  6
CONTINUOUS
 10
79.39000
 20
44.77500
 30
 0
 11
65.39000
 21
44.77500
  0
ARC
  8
Contour
 62
   7
 39
0.100
  6
CONTINUOUS
 10
65.39000
 20
44.27500
 30
 0
 40
0.50000
 50
90.00000
 51
180.00000
  0
LINE
  8
Contour
 62
   7
 39
0.100
  6
CONTINUOUS
 10
64.89000
 20
44.27500
 30
 0
 11
64.89000
 21
38.27500
  0
ARC
  8
Contour
 62
   7
 39
0.100
  6
CONTINUOUS
 10
100.95000
 20
16.05000
 30
 0
 40
0.50000
 50
180.00000
 51
270.00000
  0
LINE
  8
Contour
 62
   7
 39
0.100
  6
CONTINUOUS
 10
100.95000
 20
15.55000
 30
 0
 11
114.95000
 21
15.55000
  0
ARC
  8
Contour
 62
   7
 39
0.100
  6
CONTINUOUS
 10
114.95000
 20
16.05000
 30
 0
 40
0.50000
 50
270.00000
 51
360.00000
  0
LINE
  8
Contour
 62
   7
 39
0.100
  6
CONTINUOUS
 10
115.45000
 20
16.05000
 30
 0
 11
115.45000
 21
22.05000
  0
ARC
  8
Contour
 62
   7
 39
0.100
  6
CONTINUOUS
 10
114.95000
 20
22.05000
 30
 0
 40
0.50000
 50
0.00000
 51
90.00000
  0
LINE
  8
Contour
 62
   7
 39
0.100
  6
CONTINUOUS
 10
114.95000
 20
22.55000
 30
 0
 11
100.95000
 21
22.55000
  0
ARC
  8
Contour
 62
   7
 39
0.100
  6
CONTINUOUS
 10
100.95000
 20
22.05000
 30
 0
 40
0.50000
 50
90.00000
 51
180.00000
  0
LINE
  8
Contour
 62
   7
 39
0.100
  6
CONTINUOUS
 10
100.45000
 20
22.05000
 30
 0
 11
100.45000
 21
16.05000
  0
ARC
  8
Contour
 62
   7
 39
0.100
  6
CONTINUOUS
 10
100.95000
 20
38.27500
 30
 0
 40
0.50000
 50
180.00000
 51
270.00000
  0
LINE
  8
Contour
 62
   7
 39
0.100
  6
CONTINUOUS
 10
100.95000
 20
37.77500
 30
 0
 11
114.95000
 21
37.77500
  0
ARC
  8
Contour
 62
   7
 39
0.100
  6
CONTINUOUS
 10
114.95000
 20
38.27500
 30
 0
 40
0.50000
 50
270.00000
 51
360.00000
  0
LINE
  8
Contour
 62
   7
 39
0.100
  6
CONTINUOUS
 10
115.45000
 20
38.27500
 30
 0
 11
115.45000
 21
44.27500
  0
ARC
  8
Contour
 62
   7
 39
0.100
  6
CONTINUOUS
 10
114.95000
 20
44.27500
 30
 0
 40
0.50000
 50
0.00000
 51
90.00000
  0
LINE
  8
Contour
 62
   7
 39
0.100
  6
CONTINUOUS
 10
114.95000
 20
44.77500
 30
 0
 11
100.95000
 21
44.77500
  0
ARC
  8
Contour
 62
   7
 39
0.100
  6
CONTINUOUS
 10
100.95000
 20
44.27500
 30
 0
 40
0.50000
 50
90.00000
 51
180.00000
  0
LINE
  8
Contour
 62
   7
 39
0.100
  6
CONTINUOUS
 10
100.45000
 20
44.27500
 30
 0
 11
100.45000
 21
38.27500
  0
ARC
  8
Contour
 62
   7
 39
0.100
  6
CONTINUOUS
 10
138.01000
 20
16.05000
 30
 0
 40
0.50000
 50
180.00000
 51
270.00000
  0
LINE
  8
Contour
 62
   7
 39
0.100
  6
CONTINUOUS
 10
138.01000
 20
15.55000
 30
 0
 11
149.01000
 21
15.55000
  0
ARC
  8
Contour
 62
   7
 39
0.100
  6
CONTINUOUS
 10
149.01000
 20
16.05000
 30
 0
 40
0.50000
 50
270.00000
 51
360.00000
  0
LINE
  8
Contour
 62
   7
 39
0.100
  6
CONTINUOUS
 10
149.51000
 20
16.05000
 30
 0
 11
149.51000
 21
22.05000
  0
ARC
  8
Contour
 62
   7
 39
0.100
  6
CONTINUOUS
 10
149.01000
 20
22.05000
 30
 0
 40
0.50000
 50
0.00000
 51
90.00000
  0
LINE
  8
Contour
 62
   7
 39
0.100
  6
CONTINUOUS
 10
149.01000
 20
22.55000
 30
 0
 11
138.01000
 21
22.55000
  0
ARC
  8
Contour
 62
   7
 39
0.100
  6
CONTINUOUS
 10
138.01000
 20
22.05000
 30
 0
 40
0.50000
 50
90.00000
 51
180.00000
  0
LINE
  8
Contour
 62
   7
 39
0.100
  6
CONTINUOUS
 10
137.51000
 20
22.05000
 30
 0
 11
137.51000
 21
16.05000
  0
ARC
  8
Contour
 62
   7
 39
0.100
  6
CONTINUOUS
 10
138.01000
 20
38.27500
 30
 0
 40
0.50000
 50
180.00000
 51
270.00000
  0
LINE
  8
Contour
 62
   7
 39
0.100
  6
CONTINUOUS
 10
138.01000
 20
37.77500
 30
 0
 11
149.01000
 21
37.77500
  0
ARC
  8
Contour
 62
   7
 39
0.100
  6
CONTINUOUS
 10
149.01000
 20
38.27500
 30
 0
 40
0.50000
 50
270.00000
 51
360.00000
  0
LINE
  8
Contour
 62
   7
 39
0.100
  6
CONTINUOUS
 10
149.51000
 20
38.27500
 30
 0
 11
149.51000
 21
44.27500
  0
ARC
  8
Contour
 62
   7
 39
0.100
  6
CONTINUOUS
 10
149.01000
 20
44.27500
 30
 0
 40
0.50000
 50
0.00000
 51
90.00000
  0
LINE
  8
Contour
 62
   7
 39
0.100
  6
CONTINUOUS
 10
149.01000
 20
44.77500
 30
 0
 11
138.01000
 21
44.77500
  0
ARC
  8
Contour
 62
   7
 39
0.100
  6
CONTINUOUS
 10
138.01000
 20
44.27500
 30
 0
 40
0.50000
 50
90.00000
 51
180.00000
  0
LINE
  8
Contour
 62
   7
 39
0.100
  6
CONTINUOUS
 10
137.51000
 20
44.27500
 30
 0
 11
137.51000
 21
38.27500
  0
ARC
  8
Contour
 62
   7
 39
0.100
  6
CONTINUOUS
 10
173.57000
 20
16.05000
 30
 0
 40
0.50000
 50
180.00000
 51
270.00000
  0
LINE
  8
Contour
 62
   7
 39
0.100
  6
CONTINUOUS
 10
173.57000
 20
15.55000
 30
 0
 11
184.57000
 21
15.55000
  0
ARC
  8
Contour
 62
   7
 39
0.100
  6
CONTINUOUS
 10
184.57000
 20
16.05000
 30
 0
 40
0.50000
 50
270.00000
 51
360.00000
  0
LINE
  8
Contour
 62
   7
 39
0.100
  6
CONTINUOUS
 10
185.07000
 20
16.05000
 30
 0
 11
185.07000
 21
22.05000
  0
ARC
  8
Contour
 62
   7
 39
0.100
  6
CONTINUOUS
 10
184.57000
 20
22.05000
 30
 0
 40
0.50000
 50
0.00000
 51
90.00000
  0
LINE
  8
Contour
 62
   7
 39
0.100
  6
CONTINUOUS
 10
184.57000
 20
22.55000
 30
 0
 11
173.57000
 21
22.55000
  0
ARC
  8
Contour
 62
   7
 39
0.100
  6
CONTINUOUS
 10
173.57000
 20
22.05000
 30
 0
 40
0.50000
 50
90.00000
 51
180.00000
  0
LINE
  8
Contour
 62
   7
 39
0.100
  6
CONTINUOUS
 10
173.07000
 20
22.05000
 30
 0
 11
173.07000
 21
16.05000
  0
ARC
  8
Contour
 62
   7
 39
0.100
  6
CONTINUOUS
 10
172.07000
 20
38.27500
 30
 0
 40
0.50000
 50
180.00000
 51
270.00000
  0
LINE
  8
Contour
 62
   7
 39
0.100
  6
CONTINUOUS
 10
172.07000
 20
37.77500
 30
 0
 11
186.07000
 21
37.77500
  0
ARC
  8
Contour
 62
   7
 39
0.100
  6
CONTINUOUS
 10
186.07000
 20
38.27500
 30
 0
 40
0.50000
 50
270.00000
 51
360.00000
  0
LINE
  8
Contour
 62
   7
 39
0.100
  6
CONTINUOUS
 10
186.57000
 20
38.27500
 30
 0
 11
186.57000
 21
44.27500
  0
ARC
  8
Contour
 62
   7
 39
0.100
  6
CONTINUOUS
 10
186.07000
 20
44.27500
 30
 0
 40
0.50000
 50
0.00000
 51
90.00000
  0
LINE
  8
Contour
 62
   7
 39
0.100
  6
CONTINUOUS
 10
186.07000
 20
44.77500
 30
 0
 11
172.07000
 21
44.77500
  0
ARC
  8
Contour
 62
   7
 39
0.100
  6
CONTINUOUS
 10
172.07000
 20
44.27500
 30
 0
 40
0.50000
 50
90.00000
 51
180.00000
  0
LINE
  8
Contour
 62
   7
 39
0.100
  6
CONTINUOUS
 10
171.57000
 20
44.27500
 30
 0
 11
171.57000
 21
38.27500
  0
ARC
  8
Contour
 62
   7
 39
0.100
  6
CONTINUOUS
 10
209.13000
 20
16.05000
 30
 0
 40
0.50000
 50
180.00000
 51
270.00000
  0
LINE
  8
Contour
 62
   7
 39
0.100
  6
CONTINUOUS
 10
209.13000
 20
15.55000
 30
 0
 11
220.13000
 21
15.55000
  0
ARC
  8
Contour
 62
   7
 39
0.100
  6
CONTINUOUS
 10
220.13000
 20
16.05000
 30
 0
 40
0.50000
 50
270.00000
 51
360.00000
  0
LINE
  8
Contour
 62
   7
 39
0.100
  6
CONTINUOUS
 10
220.63000
 20
16.05000
 30
 0
 11
220.63000
 21
22.05000
  0
ARC
  8
Contour
 62
   7
 39
0.100
  6
CONTINUOUS
 10
220.13000
 20
22.05000
 30
 0
 40
0.50000
 50
0.00000
 51
90.00000
  0
LINE
  8
Contour
 62
   7
 39
0.100
  6
CONTINUOUS
 10
220.13000
 20
22.55000
 30
 0
 11
209.13000
 21
22.55000
  0
ARC
  8
Contour
 62
   7
 39
0.100
  6
CONTINUOUS
 10
209.13000
 20
22.05000
 30
 0
 40
0.50000
 50
90.00000
 51
180.00000
  0
LINE
  8
Contour
 62
   7
 39
0.100
  6
CONTINUOUS
 10
208.63000
 20
22.05000
 30
 0
 11
208.63000
 21
16.05000
  0
ARC
  8
Contour
 62
   7
 39
0.100
  6
CONTINUOUS
 10
209.13000
 20
38.27500
 30
 0
 40
0.50000
 50
180.00000
 51
270.00000
  0
LINE
  8
Contour
 62
   7
 39
0.100
  6
CONTINUOUS
 10
209.13000
 20
37.77500
 30
 0
 11
220.13000
 21
37.77500
  0
ARC
  8
Contour
 62
   7
 39
0.100
  6
CONTINUOUS
 10
220.13000
 20
38.27500
 30
 0
 40
0.50000
 50
270.00000
 51
360.00000
  0
LINE
  8
Contour
 62
   7
 39
0.100
  6
CONTINUOUS
 10
220.63000
 20
38.27500
 30
 0
 11
220.63000
 21
44.27500
  0
ARC
  8
Contour
 62
   7
 39
0.100
  6
CONTINUOUS
 10
220.13000
 20
44.27500
 30
 0
 40
0.50000
 50
0.00000
 51
90.00000
  0
LINE
  8
Contour
 62
   7
 39
0.100
  6
CONTINUOUS
 10
220.13000
 20
44.77500
 30
 0
 11
209.13000
 21
44.77500
  0
ARC
  8
Contour
 62
   7
 39
0.100
  6
CONTINUOUS
 10
209.13000
 20
44.27500
 30
 0
 40
0.50000
 50
90.00000
 51
180.00000
  0
LINE
  8
Contour
 62
   7
 39
0.100
  6
CONTINUOUS
 10
208.63000
 20
44.27500
 30
 0
 11
208.63000
 21
38.27500
  0
ARC
  8
Contour
 62
   7
 39
0.100
  6
CONTINUOUS
 10
244.69000
 20
16.05000
 30
 0
 40
0.50000
 50
180.00000
 51
270.00000
  0
LINE
  8
Contour
 62
   7
 39
0.100
  6
CONTINUOUS
 10
244.69000
 20
15.55000
 30
 0
 11
255.69000
 21
15.55000
  0
ARC
  8
Contour
 62
   7
 39
0.100
  6
CONTINUOUS
 10
255.69000
 20
16.05000
 30
 0
 40
0.50000
 50
270.00000
 51
360.00000
  0
LINE
  8
Contour
 62
   7
 39
0.100
  6
CONTINUOUS
 10
256.19000
 20
16.05000
 30
 0
 11
256.19000
 21
22.05000
  0
ARC
  8
Contour
 62
   7
 39
0.100
  6
CONTINUOUS
 10
255.69000
 20
22.05000
 30
 0
 40
0.50000
 50
0.00000
 51
90.00000
  0
LINE
  8
Contour
 62
   7
 39
0.100
  6
CONTINUOUS
 10
255.69000
 20
22.55000
 30
 0
 11
244.69000
 21
22.55000
  0
ARC
  8
Contour
 62
   7
 39
0.100
  6
CONTINUOUS
 10
244.69000
 20
22.05000
 30
 0
 40
0.50000
 50
90.00000
 51
180.00000
  0
LINE
  8
Contour
 62
   7
 39
0.100
  6
CONTINUOUS
 10
244.19000
 20
22.05000
 30
 0
 11
244.19000
 21
16.05000
  0
ARC
  8
Contour
 62
   7
 39
0.100
  6
CONTINUOUS
 10
243.19000
 20
38.27500
 30
 0
 40
0.50000
 50
180.00000
 51
270.00000
  0
LINE
  8
Contour
 62
   7
 39
0.100
  6
CONTINUOUS
 10
243.19000
 20
37.77500
 30
 0
 11
257.19000
 21
37.77500
  0
ARC
  8
Contour
 62
   7
 39
0.100
  6
CONTINUOUS
 10
257.19000
 20
38.27500
 30
 0
 40
0.50000
 50
270.00000
 51
360.00000
  0
LINE
  8
Contour
 62
   7
 39
0.100
  6
CONTINUOUS
 10
257.69000
 20
38.27500
 30
 0
 11
257.69000
 21
44.27500
  0
ARC
  8
Contour
 62
   7
 39
0.100
  6
CONTINUOUS
 10
257.19000
 20
44.27500
 30
 0
 40
0.50000
 50
0.00000
 51
90.00000
  0
LINE
  8
Contour
 62
   7
 39
0.100
  6
CONTINUOUS
 10
257.19000
 20
44.77500
 30
 0
 11
243.19000
 21
44.77500
  0
ARC
  8
Contour
 62
   7
 39
0.100
  6
CONTINUOUS
 10
243.19000
 20
44.27500
 30
 0
 40
0.50000
 50
90.00000
 51
180.00000
  0
LINE
  8
Contour
 62
   7
 39
0.100
  6
CONTINUOUS
 10
242.69000
 20
44.27500
 30
 0
 11
242.69000
 21
38.27500
  0
ARC
  8
Contour
 62
   7
 39
0.100
  6
CONTINUOUS
 10
280.25000
 20
16.05000
 30
 0
 40
0.50000
 50
180.00000
 51
270.00000
  0
LINE
  8
Contour
 62
   7
 39
0.100
  6
CONTINUOUS
 10
280.25000
 20
15.55000
 30
 0
 11
291.25000
 21
15.55000
  0
ARC
  8
Contour
 62
   7
 39
0.100
  6
CONTINUOUS
 10
291.25000
 20
16.05000
 30
 0
 40
0.50000
 50
270.00000
 51
360.00000
  0
LINE
  8
Contour
 62
   7
 39
0.100
  6
CONTINUOUS
 10
291.75000
 20
16.05000
 30
 0
 11
291.75000
 21
22.05000
  0
ARC
  8
Contour
 62
   7
 39
0.100
  6
CONTINUOUS
 10
291.25000
 20
22.05000
 30
 0
 40
0.50000
 50
0.00000
 51
90.00000
  0
LINE
  8
Contour
 62
   7
 39
0.100
  6
CONTINUOUS
 10
291.25000
 20
22.55000
 30
 0
 11
280.25000
 21
22.55000
  0
ARC
  8
Contour
 62
   7
 39
0.100
  6
CONTINUOUS
 10
280.25000
 20
22.05000
 30
 0
 40
0.50000
 50
90.00000
 51
180.00000
  0
LINE
  8
Contour
 62
   7
 39
0.100
  6
CONTINUOUS
 10
279.75000
 20
22.05000
 30
 0
 11
279.75000
 21
16.05000
  0
ARC
  8
Contour
 62
   7
 39
0.100
  6
CONTINUOUS
 10
278.75000
 20
38.27500
 30
 0
 40
0.50000
 50
180.00000
 51
270.00000
  0
LINE
  8
Contour
 62
   7
 39
0.100
  6
CONTINUOUS
 10
278.75000
 20
37.77500
 30
 0
 11
292.75000
 21
37.77500
  0
ARC
  8
Contour
 62
   7
 39
0.100
  6
CONTINUOUS
 10
292.75000
 20
38.27500
 30
 0
 40
0.50000
 50
270.00000
 51
360.00000
  0
LINE
  8
Contour
 62
   7
 39
0.100
  6
CONTINUOUS
 10
293.25000
 20
38.27500
 30
 0
 11
293.25000
 21
44.27500
  0
ARC
  8
Contour
 62
   7
 39
0.100
  6
CONTINUOUS
 10
292.75000
 20
44.27500
 30
 0
 40
0.50000
 50
0.00000
 51
90.00000
  0
LINE
  8
Contour
 62
   7
 39
0.100
  6
CONTINUOUS
 10
292.75000
 20
44.77500
 30
 0
 11
278.75000
 21
44.77500
  0
ARC
  8
Contour
 62
   7
 39
0.100
  6
CONTINUOUS
 10
278.75000
 20
44.27500
 30
 0
 40
0.50000
 50
90.00000
 51
180.00000
  0
LINE
  8
Contour
 62
   7
 39
0.100
  6
CONTINUOUS
 10
278.25000
 20
44.27500
 30
 0
 11
278.25000
 21
38.27500
  0
ARC
  8
Contour
 62
   7
 39
0.100
  6
CONTINUOUS
 10
315.81000
 20
16.05000
 30
 0
 40
0.50000
 50
180.00000
 51
270.00000
  0
LINE
  8
Contour
 62
   7
 39
0.100
  6
CONTINUOUS
 10
315.81000
 20
15.55000
 30
 0
 11
326.81000
 21
15.55000
  0
ARC
  8
Contour
 62
   7
 39
0.100
  6
CONTINUOUS
 10
326.81000
 20
16.05000
 30
 0
 40
0.50000
 50
270.00000
 51
360.00000
  0
LINE
  8
Contour
 62
   7
 39
0.100
  6
CONTINUOUS
 10
327.31000
 20
16.05000
 30
 0
 11
327.31000
 21
22.05000
  0
ARC
  8
Contour
 62
   7
 39
0.100
  6
CONTINUOUS
 10
326.81000
 20
22.05000
 30
 0
 40
0.50000
 50
0.00000
 51
90.00000
  0
LINE
  8
Contour
 62
   7
 39
0.100
  6
CONTINUOUS
 10
326.81000
 20
22.55000
 30
 0
 11
315.81000
 21
22.55000
  0
ARC
  8
Contour
 62
   7
 39
0.100
  6
CONTINUOUS
 10
315.81000
 20
22.05000
 30
 0
 40
0.50000
 50
90.00000
 51
180.00000
  0
LINE
  8
Contour
 62
   7
 39
0.100
  6
CONTINUOUS
 10
315.31000
 20
22.05000
 30
 0
 11
315.31000
 21
16.05000
  0
ARC
  8
Contour
 62
   7
 39
0.100
  6
CONTINUOUS
 10
315.81000
 20
38.27500
 30
 0
 40
0.50000
 50
180.00000
 51
270.00000
  0
LINE
  8
Contour
 62
   7
 39
0.100
  6
CONTINUOUS
 10
315.81000
 20
37.77500
 30
 0
 11
326.81000
 21
37.77500
  0
ARC
  8
Contour
 62
   7
 39
0.100
  6
CONTINUOUS
 10
326.81000
 20
38.27500
 30
 0
 40
0.50000
 50
270.00000
 51
360.00000
  0
LINE
  8
Contour
 62
   7
 39
0.100
  6
CONTINUOUS
 10
327.31000
 20
38.27500
 30
 0
 11
327.31000
 21
44.27500
  0
ARC
  8
Contour
 62
   7
 39
0.100
  6
CONTINUOUS
 10
326.81000
 20
44.27500
 30
 0
 40
0.50000
 50
0.00000
 51
90.00000
  0
LINE
  8
Contour
 62
   7
 39
0.100
  6
CONTINUOUS
 10
326.81000
 20
44.77500
 30
 0
 11
315.81000
 21
44.77500
  0
ARC
  8
Contour
 62
   7
 39
0.100
  6
CONTINUOUS
 10
315.81000
 20
44.27500
 30
 0
 40
0.50000
 50
90.00000
 51
180.00000
  0
LINE
  8
Contour
 62
   7
 39
0.100
  6
CONTINUOUS
 10
315.31000
 20
44.27500
 30
 0
 11
315.31000
 21
38.27500
  0
ARC
  8
Contour
 62
   7
 39
0.100
  6
CONTINUOUS
 10
351.37000
 20
16.05000
 30
 0
 40
0.50000
 50
180.00000
 51
270.00000
  0
LINE
  8
Contour
 62
   7
 39
0.100
  6
CONTINUOUS
 10
351.37000
 20
15.55000
 30
 0
 11
362.37000
 21
15.55000
  0
ARC
  8
Contour
 62
   7
 39
0.100
  6
CONTINUOUS
 10
362.37000
 20
16.05000
 30
 0
 40
0.50000
 50
270.00000
 51
360.00000
  0
LINE
  8
Contour
 62
   7
 39
0.100
  6
CONTINUOUS
 10
362.87000
 20
16.05000
 30
 0
 11
362.87000
 21
22.05000
  0
ARC
  8
Contour
 62
   7
 39
0.100
  6
CONTINUOUS
 10
362.37000
 20
22.05000
 30
 0
 40
0.50000
 50
0.00000
 51
90.00000
  0
LINE
  8
Contour
 62
   7
 39
0.100
  6
CONTINUOUS
 10
362.37000
 20
22.55000
 30
 0
 11
351.37000
 21
22.55000
  0
ARC
  8
Contour
 62
   7
 39
0.100
  6
CONTINUOUS
 10
351.37000
 20
22.05000
 30
 0
 40
0.50000
 50
90.00000
 51
180.00000
  0
LINE
  8
Contour
 62
   7
 39
0.100
  6
CONTINUOUS
 10
350.87000
 20
22.05000
 30
 0
 11
350.87000
 21
16.05000
  0
ARC
  8
Contour
 62
   7
 39
0.100
  6
CONTINUOUS
 10
351.37000
 20
38.27500
 30
 0
 40
0.50000
 50
180.00000
 51
270.00000
  0
LINE
  8
Contour
 62
   7
 39
0.100
  6
CONTINUOUS
 10
351.37000
 20
37.77500
 30
 0
 11
362.37000
 21
37.77500
  0
ARC
  8
Contour
 62
   7
 39
0.100
  6
CONTINUOUS
 10
362.37000
 20
38.27500
 30
 0
 40
0.50000
 50
270.00000
 51
360.00000
  0
LINE
  8
Contour
 62
   7
 39
0.100
  6
CONTINUOUS
 10
362.87000
 20
38.27500
 30
 0
 11
362.87000
 21
44.27500
  0
ARC
  8
Contour
 62
   7
 39
0.100
  6
CONTINUOUS
 10
362.37000
 20
44.27500
 30
 0
 40
0.50000
 50
0.00000
 51
90.00000
  0
LINE
  8
Contour
 62
   7
 39
0.100
  6
CONTINUOUS
 10
362.37000
 20
44.77500
 30
 0
 11
351.37000
 21
44.77500
  0
ARC
  8
Contour
 62
   7
 39
0.100
  6
CONTINUOUS
 10
351.37000
 20
44.27500
 30
 0
 40
0.50000
 50
90.00000
 51
180.00000
  0
LINE
  8
Contour
 62
   7
 39
0.100
  6
CONTINUOUS
 10
350.87000
 20
44.27500
 30
 0
 11
350.87000
 21
38.27500
  0
CIRCLE
  8
Contour
 62
   7
 39
0.100
  6
CONTINUOUS
 10
129.67000
 20
143.39000
 30
 0
 40
3.00000
  0
LINE
  8
Reference_points
 62
   1
 39
0.100
  6
CONTINUOUS
 10
-0.91800
 20
0.00000
 30
 0
 11
0.91800
 21
0.00000
  0
LINE
  8
Reference_points
 62
   1
 39
0.100
  6
CONTINUOUS
 10
0.00000
 20
-0.91800
 30
 0
 11
0.00000
 21
0.91800
  0
LINE
  8
Reference_points
 62
   1
 39
0.100
  6
CONTINUOUS
 10
8.60700
 20
168.27800
 30
 0
 11
10.44300
 21
168.27800
  0
LINE
  8
Reference_points
 62
   1
 39
0.100
  6
CONTINUOUS
 10
9.52500
 20
167.36000
 30
 0
 11
9.52500
 21
169.19600
  0
LINE
  8
Reference_points
 62
   1
 39
0.100
  6
CONTINUOUS
 10
383.25700
 20
168.27500
 30
 0
 11
385.09300
 21
168.27500
  0
LINE
  8
Reference_points
 62
   1
 39
0.100
  6
CONTINUOUS
 10
384.17500
 20
167.35700
 30
 0
 11
384.17500
 21
169.19300
  0
LINE
  8
Reference_points
 62
   1
 39
0.100
  6
CONTINUOUS
 10
3.85700
 20
19.05000
 30
 0
 11
5.69300
 21
19.05000
  0
LINE
  8
Reference_points
 62
   1
 39
0.100
  6
CONTINUOUS
 10
4.77500
 20
18.13200
 30
 0
 11
4.77500
 21
19.96800
  0
LINE
  8
Reference_points
 62
   1
 39
0.100
  6
CONTINUOUS
 10
388.00700
 20
19.05000
 30
 0
 11
389.84300
 21
19.05000
  0
LINE
  8
Reference_points
 62
   1
 39
0.100
  6
CONTINUOUS
 10
388.92500
 20
18.13200
 30
 0
 11
388.92500
 21
19.96800
  0
LINE
  8
Reference_points
 62
   1
 39
0.100
  6
CONTINUOUS
 10
23.21200
 20
152.40000
 30
 0
 11
25.04800
 21
152.40000
  0
LINE
  8
Reference_points
 62
   1
 39
0.100
  6
CONTINUOUS
 10
24.13000
 20
151.48200
 30
 0
 11
24.13000
 21
153.31800
  0
LINE
  8
Reference_points
 62
   1
 39
0.100
  6
CONTINUOUS
 10
195.93200
 20
152.40000
 30
 0
 11
197.76800
 21
152.40000
  0
LINE
  8
Reference_points
 62
   1
 39
0.100
  6
CONTINUOUS
 10
196.85000
 20
151.48200
 30
 0
 11
196.85000
 21
153.31800
  0
LINE
  8
Reference_points
 62
   1
 39
0.100
  6
CONTINUOUS
 10
368.65200
 20
152.40000
 30
 0
 11
370.48800
 21
152.40000
  0
LINE
  8
Reference_points
 62
   1
 39
0.100
  6
CONTINUOUS
 10
369.57000
 20
151.48200
 30
 0
 11
369.57000
 21
153.31800
  0
LINE
  8
Reference_points
 62
   1
 39
0.100
  6
CONTINUOUS
 10
23.21200
 20
6.35000
 30
 0
 11
25.04800
 21
6.35000
  0
LINE
  8
Reference_points
 62
   1
 39
0.100
  6
CONTINUOUS
 10
24.13000
 20
5.43200
 30
 0
 11
24.13000
 21
7.26800
  0
LINE
  8
Reference_points
 62
   1
 39
0.100
  6
CONTINUOUS
 10
195.93200
 20
6.35000
 30
 0
 11
197.76800
 21
6.35000
  0
LINE
  8
Reference_points
 62
   1
 39
0.100
  6
CONTINUOUS
 10
196.85000
 20
5.43200
 30
 0
 11
196.85000
 21
7.26800
  0
LINE
  8
Reference_points
 62
   1
 39
0.100
  6
CONTINUOUS
 10
368.65200
 20
6.35000
 30
 0
 11
370.48800
 21
6.35000
  0
LINE
  8
Reference_points
 62
   1
 39
0.100
  6
CONTINUOUS
 10
369.57000
 20
5.43200
 30
 0
 11
369.57000
 21
7.26800
  0
LINE
  8
Reference_points
 62
   1
 39
0.100
  6
CONTINUOUS
 10
348.33200
 20
130.17500
 30
 0
 11
350.16800
 21
130.17500
  0
LINE
  8
Reference_points
 62
   1
 39
0.100
  6
CONTINUOUS
 10
349.25000
 20
129.25700
 30
 0
 11
349.25000
 21
131.09300
  0
LINE
  8
Reference_points
 62
   1
 39
0.100
  6
CONTINUOUS
 10
297.65900
 20
130.40000
 30
 0
 11
299.49500
 21
130.40000
  0
LINE
  8
Reference_points
 62
   1
 39
0.100
  6
CONTINUOUS
 10
298.57700
 20
129.48200
 30
 0
 11
298.57700
 21
131.31800
  0
LINE
  8
Reference_points
 62
   1
 39
0.100
  6
CONTINUOUS
 10
246.73200
 20
130.17500
 30
 0
 11
248.56800
 21
130.17500
  0
LINE
  8
Reference_points
 62
   1
 39
0.100
  6
CONTINUOUS
 10
247.65000
 20
129.25700
 30
 0
 11
247.65000
 21
131.09300
  0
LINE
  8
Reference_points
 62
   1
 39
0.100
  6
CONTINUOUS
 10
196.05900
 20
130.40000
 30
 0
 11
197.89500
 21
130.40000
  0
LINE
  8
Reference_points
 62
   1
 39
0.100
  6
CONTINUOUS
 10
196.97700
 20
129.48200
 30
 0
 11
196.97700
 21
131.31800
  0
LINE
  8
Reference_points
 62
   1
 39
0.100
  6
CONTINUOUS
 10
145.13200
 20
130.17500
 30
 0
 11
146.96800
 21
130.17500
  0
LINE
  8
Reference_points
 62
   1
 39
0.100
  6
CONTINUOUS
 10
146.05000
 20
129.25700
 30
 0
 11
146.05000
 21
131.09300
  0
LINE
  8
Reference_points
 62
   1
 39
0.100
  6
CONTINUOUS
 10
94.45900
 20
130.40000
 30
 0
 11
96.29500
 21
130.40000
  0
LINE
  8
Reference_points
 62
   1
 39
0.100
  6
CONTINUOUS
 10
95.37700
 20
129.48200
 30
 0
 11
95.37700
 21
131.31800
  0
LINE
  8
Reference_points
 62
   1
 39
0.100
  6
CONTINUOUS
 10
145.13200
 20
79.37500
 30
 0
 11
146.96800
 21
79.37500
  0
LINE
  8
Reference_points
 62
   1
 39
0.100
  6
CONTINUOUS
 10
146.05000
 20
78.45700
 30
 0
 11
146.05000
 21
80.29300
  0
LINE
  8
Reference_points
 62
   1
 39
0.100
  6
CONTINUOUS
 10
94.45900
 20
79.60000
 30
 0
 11
96.29500
 21
79.60000
  0
LINE
  8
Reference_points
 62
   1
 39
0.100
  6
CONTINUOUS
 10
95.37700
 20
78.68200
 30
 0
 11
95.37700
 21
80.51800
  0
LINE
  8
Reference_points
 62
   1
 39
0.100
  6
CONTINUOUS
 10
246.73200
 20
79.37500
 30
 0
 11
248.56800
 21
79.37500
  0
LINE
  8
Reference_points
 62
   1
 39
0.100
  6
CONTINUOUS
 10
247.65000
 20
78.45700
 30
 0
 11
247.65000
 21
80.29300
  0
LINE
  8
Reference_points
 62
   1
 39
0.100
  6
CONTINUOUS
 10
196.05900
 20
79.60000
 30
 0
 11
197.89500
 21
79.60000
  0
LINE
  8
Reference_points
 62
   1
 39
0.100
  6
CONTINUOUS
 10
196.97700
 20
78.68200
 30
 0
 11
196.97700
 21
80.51800
  0
LINE
  8
Reference_points
 62
   1
 39
0.100
  6
CONTINUOUS
 10
348.33200
 20
79.37500
 30
 0
 11
350.16800
 21
79.37500
  0
LINE
  8
Reference_points
 62
   1
 39
0.100
  6
CONTINUOUS
 10
349.25000
 20
78.45700
 30
 0
 11
349.25000
 21
80.29300
  0
LINE
  8
Reference_points
 62
   1
 39
0.100
  6
CONTINUOUS
 10
297.65900
 20
79.60000
 30
 0
 11
299.49500
 21
79.60000
  0
LINE
  8
Reference_points
 62
   1
 39
0.100
  6
CONTINUOUS
 10
298.57700
 20
78.68200
 30
 0
 11
298.57700
 21
80.51800
  0
LINE
  8
Reference_points
 62
   1
 39
0.100
  6
CONTINUOUS
 10
43.65900
 20
79.60000
 30
 0
 11
45.49500
 21
79.60000
  0
LINE
  8
Reference_points
 62
   1
 39
0.100
  6
CONTINUOUS
 10
44.57700
 20
78.68200
 30
 0
 11
44.57700
 21
80.51800
  0
LINE
  8
Reference_points
 62
   1
 39
0.100
  6
CONTINUOUS
 10
43.65900
 20
130.40000
 30
 0
 11
45.49500
 21
130.40000
  0
LINE
  8
Reference_points
 62
   1
 39
0.100
  6
CONTINUOUS
 10
44.57700
 20
129.48200
 30
 0
 11
44.57700
 21
131.31800
  0
LINE
  8
Reference_points
 62
   1
 39
0.100
  6
CONTINUOUS
 10
35.91200
 20
41.27500
 30
 0
 11
37.74800
 21
41.27500
  0
LINE
  8
Reference_points
 62
   1
 39
0.100
  6
CONTINUOUS
 10
36.83000
 20
40.35700
 30
 0
 11
36.83000
 21
42.19300
  0
LINE
  8
Reference_points
 62
   1
 39
0.100
  6
CONTINUOUS
 10
35.91200
 20
19.05000
 30
 0
 11
37.74800
 21
19.05000
  0
LINE
  8
Reference_points
 62
   1
 39
0.100
  6
CONTINUOUS
 10
36.83000
 20
18.13200
 30
 0
 11
36.83000
 21
19.96800
  0
LINE
  8
Reference_points
 62
   1
 39
0.100
  6
CONTINUOUS
 10
71.47200
 20
19.05000
 30
 0
 11
73.30800
 21
19.05000
  0
LINE
  8
Reference_points
 62
   1
 39
0.100
  6
CONTINUOUS
 10
72.39000
 20
18.13200
 30
 0
 11
72.39000
 21
19.96800
  0
LINE
  8
Reference_points
 62
   1
 39
0.100
  6
CONTINUOUS
 10
71.47200
 20
41.27500
 30
 0
 11
73.30800
 21
41.27500
  0
LINE
  8
Reference_points
 62
   1
 39
0.100
  6
CONTINUOUS
 10
72.39000
 20
40.35700
 30
 0
 11
72.39000
 21
42.19300
  0
LINE
  8
Reference_points
 62
   1
 39
0.100
  6
CONTINUOUS
 10
107.03200
 20
19.05000
 30
 0
 11
108.86800
 21
19.05000
  0
LINE
  8
Reference_points
 62
   1
 39
0.100
  6
CONTINUOUS
 10
107.95000
 20
18.13200
 30
 0
 11
107.95000
 21
19.96800
  0
LINE
  8
Reference_points
 62
   1
 39
0.100
  6
CONTINUOUS
 10
107.03200
 20
41.27500
 30
 0
 11
108.86800
 21
41.27500
  0
LINE
  8
Reference_points
 62
   1
 39
0.100
  6
CONTINUOUS
 10
107.95000
 20
40.35700
 30
 0
 11
107.95000
 21
42.19300
  0
LINE
  8
Reference_points
 62
   1
 39
0.100
  6
CONTINUOUS
 10
142.59200
 20
19.05000
 30
 0
 11
144.42800
 21
19.05000
  0
LINE
  8
Reference_points
 62
   1
 39
0.100
  6
CONTINUOUS
 10
143.51000
 20
18.13200
 30
 0
 11
143.51000
 21
19.96800
  0
LINE
  8
Reference_points
 62
   1
 39
0.100
  6
CONTINUOUS
 10
142.59200
 20
41.27500
 30
 0
 11
144.42800
 21
41.27500
  0
LINE
  8
Reference_points
 62
   1
 39
0.100
  6
CONTINUOUS
 10
143.51000
 20
40.35700
 30
 0
 11
143.51000
 21
42.19300
  0
LINE
  8
Reference_points
 62
   1
 39
0.100
  6
CONTINUOUS
 10
178.15200
 20
19.05000
 30
 0
 11
179.98800
 21
19.05000
  0
LINE
  8
Reference_points
 62
   1
 39
0.100
  6
CONTINUOUS
 10
179.07000
 20
18.13200
 30
 0
 11
179.07000
 21
19.96800
  0
LINE
  8
Reference_points
 62
   1
 39
0.100
  6
CONTINUOUS
 10
178.15200
 20
41.27500
 30
 0
 11
179.98800
 21
41.27500
  0
LINE
  8
Reference_points
 62
   1
 39
0.100
  6
CONTINUOUS
 10
179.07000
 20
40.35700
 30
 0
 11
179.07000
 21
42.19300
  0
LINE
  8
Reference_points
 62
   1
 39
0.100
  6
CONTINUOUS
 10
213.71200
 20
19.05000
 30
 0
 11
215.54800
 21
19.05000
  0
LINE
  8
Reference_points
 62
   1
 39
0.100
  6
CONTINUOUS
 10
214.63000
 20
18.13200
 30
 0
 11
214.63000
 21
19.96800
  0
LINE
  8
Reference_points
 62
   1
 39
0.100
  6
CONTINUOUS
 10
213.71200
 20
41.27500
 30
 0
 11
215.54800
 21
41.27500
  0
LINE
  8
Reference_points
 62
   1
 39
0.100
  6
CONTINUOUS
 10
214.63000
 20
40.35700
 30
 0
 11
214.63000
 21
42.19300
  0
LINE
  8
Reference_points
 62
   1
 39
0.100
  6
CONTINUOUS
 10
249.27200
 20
19.05000
 30
 0
 11
251.10800
 21
19.05000
  0
LINE
  8
Reference_points
 62
   1
 39
0.100
  6
CONTINUOUS
 10
250.19000
 20
18.13200
 30
 0
 11
250.19000
 21
19.96800
  0
LINE
  8
Reference_points
 62
   1
 39
0.100
  6
CONTINUOUS
 10
249.27200
 20
41.27500
 30
 0
 11
251.10800
 21
41.27500
  0
LINE
  8
Reference_points
 62
   1
 39
0.100
  6
CONTINUOUS
 10
250.19000
 20
40.35700
 30
 0
 11
250.19000
 21
42.19300
  0
LINE
  8
Reference_points
 62
   1
 39
0.100
  6
CONTINUOUS
 10
284.83200
 20
19.05000
 30
 0
 11
286.66800
 21
19.05000
  0
LINE
  8
Reference_points
 62
   1
 39
0.100
  6
CONTINUOUS
 10
285.75000
 20
18.13200
 30
 0
 11
285.75000
 21
19.96800
  0
LINE
  8
Reference_points
 62
   1
 39
0.100
  6
CONTINUOUS
 10
284.83200
 20
41.27500
 30
 0
 11
286.66800
 21
41.27500
  0
LINE
  8
Reference_points
 62
   1
 39
0.100
  6
CONTINUOUS
 10
285.75000
 20
40.35700
 30
 0
 11
285.75000
 21
42.19300
  0
LINE
  8
Reference_points
 62
   1
 39
0.100
  6
CONTINUOUS
 10
320.39200
 20
19.05000
 30
 0
 11
322.22800
 21
19.05000
  0
LINE
  8
Reference_points
 62
   1
 39
0.100
  6
CONTINUOUS
 10
321.31000
 20
18.13200
 30
 0
 11
321.31000
 21
19.96800
  0
LINE
  8
Reference_points
 62
   1
 39
0.100
  6
CONTINUOUS
 10
320.39200
 20
41.27500
 30
 0
 11
322.22800
 21
41.27500
  0
LINE
  8
Reference_points
 62
   1
 39
0.100
  6
CONTINUOUS
 10
321.31000
 20
40.35700
 30
 0
 11
321.31000
 21
42.19300
  0
LINE
  8
Reference_points
 62
   1
 39
0.100
  6
CONTINUOUS
 10
355.95200
 20
19.05000
 30
 0
 11
357.78800
 21
19.05000
  0
LINE
  8
Reference_points
 62
   1
 39
0.100
  6
CONTINUOUS
 10
356.87000
 20
18.13200
 30
 0
 11
356.87000
 21
19.96800
  0
LINE
  8
Reference_points
 62
   1
 39
0.100
  6
CONTINUOUS
 10
355.95200
 20
41.27500
 30
 0
 11
357.78800
 21
41.27500
  0
LINE
  8
Reference_points
 62
   1
 39
0.100
  6
CONTINUOUS
 10
356.87000
 20
40.35700
 30
 0
 11
356.87000
 21
42.19300
  0
LINE
  8
Reference_points
 62
   1
 39
0.100
  6
CONTINUOUS
 10
128.75200
 20
143.39000
 30
 0
 11
130.58800
 21
143.39000
  0
LINE
  8
Reference_points
 62
   1
 39
0.100
  6
CONTINUOUS
 10
129.67000
 20
142.47200
 30
 0
 11
129.67000
 21
144.30800
  0
ENDSEC
  0
EOF
